<svg xmlns="http://www.w3.org/2000/svg" width="146.734" height="71.163" viewBox="0 0 146.734 71.163">
  <path id="Sky_Effect" data-name="Sky Effect" d="M1065.947,4574.838c-1.088.228-1.129,1.253-1.483,2.007-.789,1.683-1.472,3.415-2.276,5.089a6.945,6.945,0,0,1-1.351,1.941,3,3,0,0,1-1.619.769,4.014,4.014,0,0,1-4.068-3.657,8.243,8.243,0,0,1,.51-3.641,5.563,5.563,0,0,0,.479-2.324,13.109,13.109,0,0,1,1.7-5.79,13.926,13.926,0,0,0,.868-3.329c-1.115.073-1.441.818-1.779,1.509-1.359,2.783-2.666,5.592-4.057,8.36a39.833,39.833,0,0,1-2.385,4.126,5.047,5.047,0,0,1-1.6,1.331,1.818,1.818,0,0,1-2.223-.136c-.692-.534-1.435-1-2.252-1.562q-1.182,1.567-2.167,2.873c-1.584.131-2.53-.7-3.5-1.465a2.092,2.092,0,0,1-.705-1.916c.123-1.587.31-3.168.46-4.753.029-.311,0-.625,0-1.47a31.449,31.449,0,0,0-1.909,4.58c-.681,1.728-1.268,3.5-2.024,5.192-1.192,2.671-2.331,2.918-4.692,1.188a3.65,3.65,0,0,1-1.666-2.85,34.891,34.891,0,0,1,.3-7.41c.334-2.358.7-4.714,1.033-7.073.021-.146-.094-.311-.2-.635-.334.649-.662,1.165-.88,1.725-1.441,3.71-2.856,7.431-4.285,11.146a9.468,9.468,0,0,1-1.895,3.184c-1.779.366-2.833-.736-3.818-1.87a1.8,1.8,0,0,1-.264-1.25c.113-1.054.328-2.1.512-3.141.108-.61.263-1.212.35-1.824.148-1.034.258-2.073.449-3.632a9.108,9.108,0,0,0-1.078,1.322c-1.159,2.486-2.261,5-3.427,7.482a31.23,31.23,0,0,1-1.972,3.75c-.784,1.209-1.419,1.229-2.711.66a2.983,2.983,0,0,1-1.919-3.381,64,64,0,0,1,1.927-11.234,116.563,116.563,0,0,1,6.307-18.3,85.5,85.5,0,0,1,5.361-9.73c2.753-4.361,6.049-8.284,9.2-12.332a6.2,6.2,0,0,0,1.054-1.822c.569-1.768,1.052-3.565,1.514-5.365.245-.949.193-.962-.293-2.524a6.234,6.234,0,0,0-3.471,2.105,84.243,84.243,0,0,0-12.013,16.467c-2.633,4.74-4.591,9.76-6.818,14.668a38.477,38.477,0,0,0-1.612,5.326c-.146.508-.18,1.052-.352,1.547-.18.519-.516.95-1.165.861a1.286,1.286,0,0,1-1.177-1.214,18.561,18.561,0,0,1,.378-3.141,20.22,20.22,0,0,1,1.026-3.012,94.317,94.317,0,0,1,4.219-9.724c1.262-2.33,2.227-4.82,3.434-7.182a66.885,66.885,0,0,1,10.172-14.85,29.645,29.645,0,0,1,3.291-3.085,7.192,7.192,0,0,1,4.63-1.747,3.382,3.382,0,0,1,3.516,3.753c-.062.954-.256,1.9-.385,2.808.935.818,1.989.2,3.169.615l1.81,2.023a1.715,1.715,0,0,0,.674-.046,3.983,3.983,0,0,1,4.874.741,1.676,1.676,0,0,0,.894.506c.712.061,1.46.006,1.805-.792.762-1.763,2.459-2.512,3.89-3.5a3.934,3.934,0,0,1,4.858.541c.325.288.646.581,1.029.927a7.386,7.386,0,0,0,1.273-.357,6.73,6.73,0,0,1,6.593.174c1.321.731,1.621.559,2.722-.589,1.892-1.976,3.885-3.855,5.745-5.861,1.714-1.849,3.813-1.572,5.925-1.259a1.922,1.922,0,0,1,1.478,1.4c.228.662.4,1.342.588,1.987,2.67.76,2.67.76,4.733,3.693a11.834,11.834,0,0,0,1.218-.85c.99-.883,1.911-1.848,2.927-2.7,2.326-1.953,4.137-2.1,6.782-.643a6.4,6.4,0,0,0,.677.288c4.907-2.153,5.542-1.31,7.895,1.4a3.705,3.705,0,0,0,.854-.561c1.261-1.447,2.9-1.1,4.467-.926a1.962,1.962,0,0,1,1.6,1.6,7.35,7.35,0,0,1,.167,1.838c0,.782-.061,1.565-.093,2.277a.923.923,0,0,0,1.274-.316c.482-.512.959-1.029,1.387-1.49,3.17.075,3.17.075,5.039,1.5.921-.291,1.4-1.212,2.113-1.822a5.587,5.587,0,0,1,4.151-1.424,3.225,3.225,0,0,1,2.841,1.647c.344.606.735,1.186,1.087,1.749,4.292-.633,4.6-.549,7.468,2.039,1.157.011,1.645-.912,2.2-1.681a7.3,7.3,0,0,1,3.755-2.81,7.669,7.669,0,0,1,4.181.006,2.576,2.576,0,0,1,1.263.882,5.244,5.244,0,0,1,1.145,3.456,42.491,42.491,0,0,1-.983,9.223c-1.439,6.663-3.589,13.128-5.348,19.7-.875,3.269-2.355,6.29-3.38,9.489-.485,1.515-1.029,3.016-1.641,4.484-.781,1.875-1.647,3.715-2.5,5.558a2.71,2.71,0,0,1-2.059,1.516.809.809,0,0,1-1.024-.877,9,9,0,0,1,.44-2.067c.539-1.4.943-2.834,1.365-4.273,1.869-6.362,3.864-12.685,5.778-19.034q1.759-5.834,3.416-11.7a54.979,54.979,0,0,0,1.855-12.847,6.39,6.39,0,0,0-.3-1.394,10.049,10.049,0,0,0-1.313.642,20.181,20.181,0,0,0-6.244,7.127,6.03,6.03,0,0,0-.552,2.271c-.191,2.291-.278,4.588-.441,6.88a86.922,86.922,0,0,1-2.161,13.337,201.437,201.437,0,0,1-6.223,20.3c-1.063,3.083-2.515,6.033-3.843,9.021a4.661,4.661,0,0,1-2.975,2.834,3.324,3.324,0,0,1-2.824-.226,23.272,23.272,0,0,1-2.754-2.064,2.269,2.269,0,0,1-.731-2.17c.654-3.828,1.057-7.681,2.447-11.383,1.644-4.377,2.793-8.939,4.41-13.326,1.589-4.31,3.416-8.539,5.291-12.735,1.479-3.31,3.225-6.5,4.786-9.776a11.993,11.993,0,0,0,.76-7.1.909.909,0,0,0-1.283.376,31.8,31.8,0,0,0-5.238,8.869q-3.171,9.155-6.449,18.273c-1.489,4.16-3.059,8.289-4.561,12.443q-3.113,8.609-6.172,17.235c-.512,1.44-1.308,1.732-2.588.84a14.446,14.446,0,0,1-1.18-1.017,2.726,2.726,0,0,1-.07-.84c1.176-4.356,2.2-8.782,4.066-12.893,1.239-2.732,2.085-5.607,3.371-8.31a6.039,6.039,0,0,0,.407-.981c1.666-6.067,4.1-11.868,6.155-17.8,1.762-5.1,3.331-10.269,4.949-15.418a25.918,25.918,0,0,0,.68-3.109,4.981,4.981,0,0,0-.107-1.16,4.613,4.613,0,0,0-1.052.556,32.081,32.081,0,0,0-6.871,10.3c-4.068,9.616-7.436,19.5-11.391,29.157-1.24,3.028-2.387,6.1-3.582,9.141a7.508,7.508,0,0,1-.449.963,22.3,22.3,0,0,0-2.852,6.743c-1.482.262-2.223-.608-3.091-1.583.524-2.013.971-4.079,1.6-6.084q1.436-4.555,3.1-9.037c.706-1.905,1.61-3.736,2.413-5.6.489-1.136.962-2.278,1.428-3.423q1.7-4.17,3.381-8.347c.527-1.307,1.026-2.625,1.549-3.933.587-1.468,1.128-2.957,1.8-4.388a40.141,40.141,0,0,0,2.235-6.516,2.78,2.78,0,0,0,.009-.726c-.77-.276-.993.3-1.295.687a34.7,34.7,0,0,0-5.516,10.779c-1.668,5.04-3.59,10-5.258,15.035-1.755,5.3-3.922,10.426-6.086,15.563-.892,2.116-1.566,4.323-2.383,6.472-.371.977-.851,1.914-1.251,2.8-2.182-.127-2.728-.574-3.872-3.117-.373.451-.693.847-1.023,1.233-2.154,2.516-5.047,2.092-6.5-.953-.108-.227-.207-.458-.3-.667-.625-.021-.753.432-.953.82-.811,1.572-1.565,3.178-2.46,4.7-.842,1.434-1.693,1.586-3.078.729-.374-.233-.7-.543-1.065-.791a1.934,1.934,0,0,1-.875-2.072,32.507,32.507,0,0,1,1.5-6.44,35.875,35.875,0,0,0,1.292-4.305c.214-.827.288-1.689.459-2.743a8.422,8.422,0,0,0-2.207,3.218c-.842,1.853-1.734,3.683-2.649,5.5a10.792,10.792,0,0,1-1.162,1.775c-1.054,1.349-1.964,1.5-3.429.6-.453-.277-.867-.617-1.318-.9a3.4,3.4,0,0,1-1.606-2.881c-.027-.438-.083-.874-.131-1.316,0-.127,0-.25.007-.374Zm-6.34-11.528c-.01-.229-.021-.458-.009-.181.022-.275,0-.039-.015.2l-.512.4.068.085C1059.3,4563.648,1059.453,4563.481,1059.607,4563.31Zm-25.907-9.61a4.1,4.1,0,0,0-.605,2.4,2.077,2.077,0,0,0,.543-2.479,1.956,1.956,0,0,0,.9-2.359C1034.127,4552.425,1033.9,4553.051,1033.7,4553.7Zm65.275-17.663c.065.043.153.073.187.133.025.044-.02.129-.035.2l-.1-.361a1.249,1.249,0,0,0,1.238-.8c.51-1.021.957-2.081,1.558-3.046a18.453,18.453,0,0,0,2.912-10.5,5.248,5.248,0,0,0-.324-1.1c-1.831,1.29-3.033,2.673-3.333,4.737-.355,2.438-.711,4.877-1.167,7.3C1099.692,4533.754,1099.821,4535.043,1098.975,4536.038ZM1023.535,4569l.034.5c-.008-.175-.017-.35-.026-.525a5.094,5.094,0,0,0,.906-.885,25.321,25.321,0,0,0,2.135-5.392c1.811-5.435,3.7-10.847,5.558-16.266a6.2,6.2,0,0,0,.281-2.74,1.174,1.174,0,0,0-.574.588c-.639,1.254-1.309,2.494-1.9,3.771a95.918,95.918,0,0,0-4.637,13.495C1024.607,4563.995,1024.122,4566.508,1023.535,4569Zm11.686-19.669q.032.308.065.617l.057-.011c-.04-.217-.08-.434-.12-.651.83-.161,1.014-.874,1.328-1.506a132.045,132.045,0,0,1,7.487-13.979,7.913,7.913,0,0,0,1.354-6.692c-.19-.058-.3-.131-.355-.1a9.01,9.01,0,0,0-4.881,5.569c-.721,2.451-1.523,4.879-2.245,7.331C1036.989,4543.033,1036.111,4546.173,1035.221,4549.331Zm52.133-7.943c.021.082.044.164.064.245s.031.137.046.206l-.11-.5c.823-.148,1.095-.824,1.361-1.473a75.67,75.67,0,0,1,4.669-9.159c1.059-1.826,2.16-3.627,3.181-5.474a6.845,6.845,0,0,0,.919-3.8,3.618,3.618,0,0,0-.44-1.069,2.537,2.537,0,0,0-.673.181,25.768,25.768,0,0,0-6.611,7.12,4.786,4.786,0,0,0-.652,2.245A78.709,78.709,0,0,1,1087.354,4541.388Zm48.619,1.528c-.156-.032-.312-.062-.468-.1a11.368,11.368,0,0,0-.8,1.3c-1.038,2.337-2.093,4.669-3.055,7.037a148.762,148.762,0,0,0-6.966,21.385,84.358,84.358,0,0,0-1.294,8.905c-.07.545-.211,1.274.825,1.542a16.039,16.039,0,0,0,1.562-2,26.679,26.679,0,0,0,2.118-4.245c1.171-3.321,2.191-6.695,3.235-10.06a149.566,149.566,0,0,0,4.826-21.7A13.769,13.769,0,0,0,1135.973,4542.916Zm-107.1-5.734c-1.607,1.221-3.138,3.186-6.312,8.65-5.352,9.217-8.465,19.243-10.369,29.673a4.257,4.257,0,0,0,.009,2.882,2.834,2.834,0,0,0,1.475-1.541,110.629,110.629,0,0,0,6.059-13.56c2.113-5.252,3.972-10.6,5.912-15.924,1-2.742,1.951-5.5,2.888-8.264A13.471,13.471,0,0,0,1028.873,4537.182Zm2.876,42.469a3.409,3.409,0,0,0,1.493-2.245c1.663-4.942,3.346-9.881,4.908-14.857,1.429-4.552,2.765-9.137,4.041-13.736.732-2.637,1.285-5.327,1.858-8.005.084-.393.454-1.067-.457-1.277-.53.909-1.117,1.8-1.586,2.745-1.294,2.614-2.575,5.237-3.8,7.886a83.457,83.457,0,0,0-6.719,25.283,25.493,25.493,0,0,0-.108,3.181A3.651,3.651,0,0,0,1031.75,4579.651Zm27.747-1.525a5.515,5.515,0,0,0,1.6-2.495c.509-1.225,1-2.457,1.488-3.69,1.044-2.626,2.27-5.2,3.084-7.9,1.612-5.333,3.96-10.4,5.592-15.716a2.443,2.443,0,0,1,.086-.251,127.413,127.413,0,0,0,4.286-12.545,4.45,4.45,0,0,0,.01-1.056C1068.789,4543.457,1059.7,4568.058,1059.5,4578.126Zm24.248-39.871q-.255-.113-.51-.228a11.627,11.627,0,0,0-1.031,1.425c-1.019,1.959-2.079,3.905-2.966,5.925a138.726,138.726,0,0,0-8.109,22.669c-.543,2.224-.85,4.508-1.209,6.773a6.436,6.436,0,0,0,.193,1.612c.406-.246.694-.32.807-.5a14.838,14.838,0,0,0,1.276-2.31c1.532-3.947,3.049-7.9,4.5-11.878a197.3,197.3,0,0,0,6.873-22.243C1083.665,4539.093,1083.688,4538.67,1083.744,4538.255Zm4.085,39.317a5.159,5.159,0,0,0,2.072-2.374c.948-1.7,1.351-3.654,2.318-5.315a31.938,31.938,0,0,0,2.189-5.66c1.3-3.668,2.556-7.351,3.823-11.031,1.555-4.511,2.785-9.117,3.972-13.735.168-.655.573-1.306.023-2.063a5.012,5.012,0,0,0-1.417,2.2q-1.8,3.841-3.511,7.721a175.638,175.638,0,0,0-9.059,26.3A8.4,8.4,0,0,0,1087.829,4577.572Zm-39.1-2.158.507.271a14.532,14.532,0,0,0,2.439-3.982c1.274-2.814,2.511-5.644,3.775-8.461a148.329,148.329,0,0,0,6.236-15.753c1.013-3.191,1.855-6.436,2.754-9.665a13.357,13.357,0,0,0,.241-1.562c-1.164.125-1.377,1.009-1.725,1.649a116.285,116.285,0,0,0-6.824,14.353c-2.465,6.527-4.746,13.118-6.593,19.851C1049.236,4573.206,1049,4574.314,1048.728,4575.414Zm46.536-41.2c-1.028.628-1.029.628-1.188.98-2.292,5.066-4.708,10.075-6.688,15.277-1.1,2.882-2.223,5.752-3.333,8.628a4.477,4.477,0,0,0-.155.507c-1.052,4.2-2.162,8.378-3.114,12.6-.252,1.118-.784,2.287-.308,3.647a25,25,0,0,0,1.462-2.636c1.625-4.007,3.2-8.036,4.773-12.065.674-1.726,1.269-3.484,1.947-5.21a167.352,167.352,0,0,0,5.56-16.563A16.08,16.08,0,0,0,1095.263,4534.212Zm-26.131,3.24c1.536-.967,1.553-.96,1.869-1.618a63.01,63.01,0,0,1,5.972-9.356,25.33,25.33,0,0,0,2.4-4.406,7.939,7.939,0,0,0,.581-4.05,5.642,5.642,0,0,0-1.3.513,45.085,45.085,0,0,0-8.026,8.054,3.681,3.681,0,0,0-.719,1.951c-.263,2.277-.6,4.546-.857,6.823A15.135,15.135,0,0,0,1069.132,4537.453Zm-26.144,34.684c3.27-6.98,5.179-13.858,7.584-20.538,1.67-4.64,2.731-9.5,4.046-14.266.026-.092-.163-.243-.358-.515a11.187,11.187,0,0,0-.847,1.345c-.758,1.694-1.465,3.412-2.208,5.114a134.468,134.468,0,0,0-8.005,24.972A9.958,9.958,0,0,0,1042.988,4572.137Zm3.242-25.077c.117.029.232.059.349.09.234-.658.44-1.327.7-1.971,1-2.438,1.878-4.944,3.079-7.282a77.714,77.714,0,0,1,4.713-8.246,13.11,13.11,0,0,0,1.39-3.117,2.327,2.327,0,0,0-.6-2.577,16.42,16.42,0,0,0-1.881,1.418c-1.184,1.183-2.28,2.454-3.437,3.664a6.756,6.756,0,0,0-1.746,4.035,92.225,92.225,0,0,1-2.223,12.474C1046.447,4546.048,1046.347,4546.557,1046.23,4547.06Zm11.983-5.948c.229-.362.472-.716.686-1.087,1.361-2.364,2.7-4.739,4.079-7.092.666-1.138,1.387-2.245,2.1-3.354a6.542,6.542,0,0,0,.876-3.8,1.385,1.385,0,0,0-.956-1.475,3.794,3.794,0,0,0-.706.185,6.765,6.765,0,0,0-4.327,6.059A67.9,67.9,0,0,1,1058.213,4541.112Zm48.1-1.52c.315-.092.568-.1.6-.185a94.8,94.8,0,0,0,4.559-16.548c.015-.095-.2-.226-.424-.467a8.371,8.371,0,0,0-2.8,5.174c-.387,2.886-.927,5.75-1.4,8.625C1106.668,4537.3,1106.5,4538.414,1106.313,4539.592Zm-21.4-17.5c-.463.183-.686.2-.769.316a4.816,4.816,0,0,0-.652,1.127,92.553,92.553,0,0,0-3.106,11.953,22.247,22.247,0,0,0,4.154-6.259A11.093,11.093,0,0,0,1084.911,4522.088Zm-47.182,5.183c-.672.038-1.011-.047-1.134.079a15.63,15.63,0,0,0-2.094,2.338,33.478,33.478,0,0,0-3.16,7.484c-.066.193.075.458.168.936a49.557,49.557,0,0,0,5.093-7.537A20.663,20.663,0,0,0,1037.73,4527.271Zm-6.649,12.5a3.732,3.732,0,0,0,.259-.4c.01-.021-.137-.158-.158-.146a.782.782,0,0,0-.316.26C1030.841,4539.53,1031,4539.671,1031.08,4539.774Zm38.234-1.259-.153-.02.056.178Z" transform="translate(-1006.859 -4515.142)" fill="#0e0e98"/>
</svg>
