<svg xmlns="http://www.w3.org/2000/svg" width="163.896" height="91.885" viewBox="0 0 163.896 91.885">
  <g id="Lines_in_Black" data-name="Lines in Black" transform="translate(-7172.982 -3634.996)">
    <path id="Path_23" data-name="Path 23" d="M7314.594,3728.426c-.231-.134-.46-.273-.7-.4s-.455-.235-.676-.349c-.489.775.621.563.516,1.122-.317.29-.738.18-1.117.113a6.17,6.17,0,0,1-1.71-.44,1.541,1.541,0,0,0-1.185-.031,13.528,13.528,0,0,1-3.235.215l.15-1.161-.43-.354a6.329,6.329,0,0,1-.322.791,3.964,3.964,0,0,1-.434.524c-.686-.184-1.443-.034-2.065-.488a.522.522,0,0,0-.4-.013,5.741,5.741,0,0,1-3-.107,8.97,8.97,0,0,1-2.246-.508.526.526,0,0,0-.356,0,3.913,3.913,0,0,1-2.019.1,11.173,11.173,0,0,0-2.464-.208c-.89.018-1.778-.02-2.187-.925-.528-.046-.569.4-.835.542-1.453-.092-2.907-.175-4.358-.288a1.332,1.332,0,0,1-.751-.267,1.567,1.567,0,0,0-1.278-.371c-.82.074-1.642.148-2.46.248-.778.1-1.543.218-2.139-.5a.664.664,0,0,0-.5-.137,10.036,10.036,0,0,0-1.9.265.926.926,0,0,1-1.191-.361l-.412.573c-.953-.169-2.052.223-2.887-.642l-.776.312-.4-.543a13.476,13.476,0,0,1-1.872.455c-.939.1-1.891.074-2.858.1l-.058-.6c-.478-.1-.625.244-.715.622a6.283,6.283,0,0,0-1.022-.111c-.6.035-1.1-.074-1.32-.73a4.021,4.021,0,0,0-.422.309,1.419,1.419,0,0,1-1.648.315c-.257-.1-.531-.146-.8-.217l-.146.021.158-.009c-.155.094-.308.268-.465.27a15,15,0,0,1-3.837.082,1.48,1.48,0,0,0-.541-.011,48.218,48.218,0,0,1-5.352.193,7.5,7.5,0,0,1-1.339-.224,9.059,9.059,0,0,1-3.44.428,11.881,11.881,0,0,0-2.589.047,19.055,19.055,0,0,1-2.466.116c-1.823.077-3.639.258-5.47.279-1.274.014-2.562-.05-3.831.071-1.743.165-3.484.18-5.232.208-1.558.026-3.114.221-4.671.347a22.629,22.629,0,0,1-2.467.119,21.874,21.874,0,0,0-2.988.3,3.784,3.784,0,0,1-1.091.1,11.657,11.657,0,0,0-3,.133,14.571,14.571,0,0,0-3,.257,2.91,2.91,0,0,1-.823.054,37.242,37.242,0,0,0-5.088.288c-1.051.114-2.109.163-3.162.263-2.879.275-5.759.543-8.635.854-1.092.118-2.169.472-3.258.493-1.891.035-3.7.666-5.6.626a25.171,25.171,0,0,0-3.549.394c-.228.028-.448.105-.675.138a1.6,1.6,0,0,1-1.888-1.983c.021-.125.046-.25.066-.357a1.364,1.364,0,0,0-1.08-.2,1.5,1.5,0,0,1-1.489-.805.79.79,0,0,1,.335-1.261,13.018,13.018,0,0,1,2.689-1.037c1.621-.328,3.176-.874,4.763-1.305.981-.266,1.983-.354,2.963-.592,1.377-.334,2.817-.336,4.177-.771,1.81.053,3.481-.686,5.243-.911.363-.046.731-.05,1.1-.091a3.1,3.1,0,0,0,1.081-.172,7.175,7.175,0,0,1,2.666-.529c1.731-.206,3.445-.557,5.171-.814,1.086-.163,2.181-.268,3.272-.395,2.506-.291,5.012-.585,7.519-.866,1.365-.153,2.734-.275,4.1-.424a4.2,4.2,0,0,0,.8-.177,2.247,2.247,0,0,1,1.344-.1,3.9,3.9,0,0,0,.95,0,8.893,8.893,0,0,0,2.176.007,8.026,8.026,0,0,1,2.147-.312,22.289,22.289,0,0,0,2.459-.215c.317-.029.636-.042.954-.058,1.01-.05,2.023-.05,3.026-.158a39.4,39.4,0,0,1,4.228-.036.8.8,0,0,0,.27,0,13.212,13.212,0,0,1,3.662-.416,3.678,3.678,0,0,1,.825-.018,19.7,19.7,0,0,0,4.109-.118c.866-.065,1.737-.069,2.605-.1a2.384,2.384,0,0,0,.412-.047,3.8,3.8,0,0,1,2.8.073c.209.114.539.007.813,0q.753-.015,1.506-.027c.046,0,.1.03.136.019a2.988,2.988,0,0,1,2.379.083c.216.112.609-.107.917-.19a6.25,6.25,0,0,1,4.069.119c.461-.326,1.427-.249,1.126-1.34a1.984,1.984,0,0,0-1.579.015,1.933,1.933,0,0,1-1.717.019c-.071-.042-.232.061-.35.1a15.211,15.211,0,0,1-2.114.367.713.713,0,0,1-.25-.1,1.515,1.515,0,0,0-2.009.231l-1.584-.848c-.728.671-1.64.382-2.483.442a3.363,3.363,0,0,0-1.463.21,1.339,1.339,0,0,1-1.058-.015c-.875-.254-1.774-.433-2.669-.616a.663.663,0,0,0-.5.107,1.676,1.676,0,0,1-1.177.306c-.967-.012-1.922.067-2.883.143-.907.07-1.828-.05-2.743-.036a14.126,14.126,0,0,0-3.691.3,1.363,1.363,0,0,1-.548.035,12.915,12.915,0,0,0-3.559.21,14.362,14.362,0,0,1-2.6.122,35.2,35.2,0,0,0-6.577.424,3.927,3.927,0,0,1-.549.047,21.925,21.925,0,0,0-3.15.245c-1.59.215-3.192.331-4.792.465-.955.08-1.916.1-2.872.17a20.293,20.293,0,0,0-2.186.25,25.02,25.02,0,0,1-2.593.291c-1.23.1-2.441.423-3.67.581-1.592.2-3.193.334-4.79.508-1.687.184-3.372.4-5.062.564-1.371.131-2.753.159-4.12.307-1.916.208-3.85.051-5.762.392a20.563,20.563,0,0,1-2.75.131c-.414.017-.826.029-1.239.055-1.255.077-1.9-.586-1.752-1.834a4.538,4.538,0,0,1,.24-.786c.878-.329,1.876-.18,2.627-.787-.371-1.486-.371-1.486.141-2.591a9.02,9.02,0,0,1,1.256-.308,32.679,32.679,0,0,0,4.872-.894c1.684-.445,3.359-.922,5.053-1.327.933-.222,1.894-.323,2.842-.477.179-.029.4,0,.535-.083a8.907,8.907,0,0,1,3.447-.825c.5-.088,1-.157,1.483-.286a10.823,10.823,0,0,1,3.525-.444,8.522,8.522,0,0,0,2.165-.333c1.3-.266,2.591-.575,3.892-.834a4.345,4.345,0,0,1,1.093-.029,11.906,11.906,0,0,0,3.017-.593c-.01-.411-.23-.384-.4-.366-.639.068-1.275.154-1.912.239-.272.036-.543.112-.816.125-1.916.1-3.823.309-5.739.427a17.976,17.976,0,0,0-3.122.475,9.31,9.31,0,0,1-2.312.323,21.656,21.656,0,0,0-4.514.495c-2.395.477-4.818.7-7.237.966-2.736.3-5.483.467-8.234.558a8.884,8.884,0,0,1-1.376-.064,1.349,1.349,0,0,1-1.235-1.941c.055-.173.135-.338.234-.58a9.091,9.091,0,0,1,2.549-.236,35.8,35.8,0,0,0,4.5-.559c2.722-.431,5.427-.967,8.143-1.433,1.219-.209,2.449-.355,3.676-.527.09-.013.2.029.272-.01a6.361,6.361,0,0,1,2.922-.612,22.976,22.976,0,0,0,2.851-.425c1.084-.184,2.163-.4,3.25-.579,1.039-.169,2.084-.314,3.128-.455,1.866-.252,3.733-.489,5.6-.741,1.182-.16,2.356-.436,3.541-.479,1.51-.056,3-.182,4.5-.358,1.818-.214,3.656-.265,5.484-.382.321-.021.644-.026.965-.028a34.332,34.332,0,0,0,5.2-.4,1.47,1.47,0,0,1,.412-.026c1.7.217,3.377-.232,5.05-.163,1.255.052,2.447-.2,3.671-.262a16.95,16.95,0,0,1,1.909.037,16.533,16.533,0,0,0,2.466-.189c.5-.042,1-.072,1.5-.111.227-.018.5.029.667-.084.6-.417,1.168-.056,1.716.076.254.061.434.422.716.72.121-.49.2-.961.835-.773a2.114,2.114,0,0,0,.659-.062c.5-.033,1-.057,1.5-.081.178-.009.425.069.521-.021.46-.428.909-.208,1.41-.113a5.576,5.576,0,0,0,1.633.017,2.446,2.446,0,0,1,1.354.083,2.785,2.785,0,0,0,1.883.139,16.774,16.774,0,0,1,4.365-.3,3.887,3.887,0,0,0,.951-.1,1.682,1.682,0,0,1,1.075.052,1.107,1.107,0,0,0,.654.037,2.15,2.15,0,0,1,1.354.064,1.485,1.485,0,0,0,1.317-.054,1.511,1.511,0,0,1,1.457.035c.012.077.022.151.034.224l-.031-.237a4.825,4.825,0,0,0,1.088-.064,3.3,3.3,0,0,1,2.146.08,2.735,2.735,0,0,0,.928.015c.123,0,.272-.072.362-.022.19.1.351.386.521.384a14.046,14.046,0,0,0,2.438-.169,31.334,31.334,0,0,1,3.665-.175.324.324,0,0,1,.134.026,5.81,5.81,0,0,0,1.344.488,7.578,7.578,0,0,0,1.34-.21,7.161,7.161,0,0,1,2.7.276,2.477,2.477,0,0,0,.668.012c.016.085.033.167.051.25l-.08-.227c.08-.043.16-.12.242-.124,1-.05,1.989-.117,2.984-.118a10.609,10.609,0,0,1,1.484.2,1.289,1.289,0,0,1,.536.1c1.038.756,2.19.3,3.285.3a9.01,9.01,0,0,1,2.163.188,32.585,32.585,0,0,0,3.259.483c1.089.15,2.178.314,3.271.434.536.059,1.083.016,1.624.046.5.027,1,.092,1.5.134a3.237,3.237,0,0,1,.808.061c.574.209,1.063.743,1.762.4a4.114,4.114,0,0,0,1.772.1,1.311,1.311,0,0,1,.665.094,7.277,7.277,0,0,0,1.99.4,33.007,33.007,0,0,1,3.872.858,1.6,1.6,0,0,1,.969,1.1,1.953,1.953,0,0,1-1.9,2.522,4.132,4.132,0,0,1-.931-.241,13.832,13.832,0,0,0-3.466-.815,1.973,1.973,0,0,1-.668-.144,5.355,5.355,0,0,0-2.549-.434,7.053,7.053,0,0,1-1.753-.25,5.7,5.7,0,0,0-2.979-.214,2.264,2.264,0,0,1-.679-.039,7.926,7.926,0,0,0-1.363-.034,12.638,12.638,0,0,1-3.952-.134c-.588-.105-.766-.248-1.214-.838a7.075,7.075,0,0,1-2.729.628,2.26,2.26,0,0,0-1.226-.745c-.517.22-.967.655-1.553.391a3.893,3.893,0,0,0-2.78-.019l.141-.3-.309.074.228.183c.042.172.026.427.136.5a1.988,1.988,0,0,0,1.649.446c.52-.129,1.035-.268,1.531-.4.121.224.169.45.3.514a1.111,1.111,0,0,0,.656.09,2.347,2.347,0,0,0,1.252-.784l-.047.918c.565.2.771-.569,1.282-.338.28.127.588.189.874.306.056.022.065.16.1.249a5,5,0,0,1,1.4-.331,10.689,10.689,0,0,1,1.85.408,1.617,1.617,0,0,0,.079.229c.013.027.066.034.1.051,0-.061.035-.161.011-.176a.774.774,0,0,0-.229-.067.629.629,0,0,1,.869-.085c.14.1.353.244.473.2a6.016,6.016,0,0,1,3.389.226c-.069.1-.136.2-.246.365a1.877,1.877,0,0,0,2.178-.217c.569.1,1.128.49,1.71.1.661.292,1.449.084,2.073.6a1.1,1.1,0,0,0,1.51.042,1.059,1.059,0,0,1,.779-.115c.758.155,1.494.438,2.256.547.721.1,1.467.021,2.2.072.593.042,1.181.162,1.77.248a3.02,3.02,0,0,1,.679.1,10.95,10.95,0,0,0,3.339.6c.727.053,1.438.287,2.164.376.772.1,1.555.121,2.332.168.228.014.457,0,.585,0,1.155.584.727,1.524.731,2.363a1.95,1.95,0,0,1-2.235.594c-.8-.233-1.621-.232-2.413-.439-.612-.16-1.233-.287-2.105-.488a4.411,4.411,0,0,1-2.3.08,8.077,8.077,0,0,0-2.2-.105,4.231,4.231,0,0,1-2.329-.647c-.232-.122-.331-.5-.5-.783a.617.617,0,0,0-.813.256c-.237.49-.6.506-1.032.449-.728-.1-1.452-.209-2.18-.309-.227-.031-.456-.053-.685-.068q-3.483-.224-6.966-.447a6.717,6.717,0,0,1-.681-.11c-.941-.163-.941-.164-1.48-1.089a1.909,1.909,0,0,0-.444.235,2.336,2.336,0,0,0-.308.445,7.319,7.319,0,0,0-2.553-.055,3,3,0,0,1-.821-.042c-.228-.025-.453-.079-.679-.119a17.621,17.621,0,0,1-2.808-.467,5.291,5.291,0,0,0-2.848-.2,2.419,2.419,0,0,1-.924-.2c-.139-.461.628-.365.5-.821-.97-.273-.987-.271-1.421.159l.953.673c-.974-.026-1.948-.035-2.921-.085a12.938,12.938,0,0,1-1.336-.212c.027-.316.046-.533.066-.75a.535.535,0,0,0,.126,0,.37.37,0,0,0,.09-.053l-.187.085a1.341,1.341,0,0,0-.942-.407v1.025c-.663-.211-1.241.325-1.893.025-.076-.036-.264.064-.342.153a.522.522,0,0,1-.841.006,1.29,1.29,0,0,0-1-.314,9.076,9.076,0,0,1-1.629-.212,1.361,1.361,0,0,0-.931.119c-.082.042-.174.145-.236.128-1.054-.279-2.049.42-3.074.2a5.263,5.263,0,0,0-1.822,0,9.192,9.192,0,0,1-1.779-.129,1.183,1.183,0,0,0-.4.062,1.965,1.965,0,0,1-2.274-.74c-.705.549-.705.549-1.231.4a2.159,2.159,0,0,0,.306-.441.373.373,0,0,0-.069-.343.4.4,0,0,0-.365-.021.879.879,0,0,0-.353.385,1.2,1.2,0,0,1-1.084.717c-.292.044-.548-.006-.63-.361a.412.412,0,0,0-.157-.2c-.219-.165-.465.026-.535.386-1.146.086-2.282.2-3.421.243a2.155,2.155,0,0,1-1.676-.445.606.606,0,0,0-.872-.079,2.107,2.107,0,0,1-1.54.43c-.728.057-1.456.094-2.185.14a1.64,1.64,0,0,1-.548.026,6.6,6.6,0,0,0-3.034.079,2.548,2.548,0,0,0,.085-.488.27.27,0,0,0-.168-.187.28.28,0,0,0-.25.058,2.083,2.083,0,0,1-2.208.671,2.128,2.128,0,0,0-.813-.035,14.344,14.344,0,0,1-3.276.248c-2.147.161-4.3.271-6.448.423-2.011.144-4.022.3-6.03.48q-3.7.336-7.391.733c-1.409.149-2.812.342-4.219.516-1.908.236-3.816.481-5.727.707-.769.092-1.544.136-2.313.228-.094.011-.167.183-.25.28.1.076.2.223.291.214.68-.062,1.358-.149,2.036-.238a17.116,17.116,0,0,1,2.579-.324c1.478.037,2.922-.217,4.384-.3,1.552-.085,3.1-.157,4.652-.256.91-.058,1.8-.229,2.731-.2,1.315.038,2.638-.16,3.958-.236.638-.036,1.277-.035,1.916-.028,1.1.011,2.193.042,3.29.061.272.005.544,0,.816-.009.956-.033,1.912-.072,2.87-.1a4.915,4.915,0,0,0,.958-.028,1.05,1.05,0,0,1,1.019.186c.392.318.674.06.9-.279l-.008-.006a3.6,3.6,0,0,0,1.077.1,7.334,7.334,0,0,1,2.588.074,2.385,2.385,0,0,0,1.206,0,3.092,3.092,0,0,1,2.365.244c.085.026.164.071.329.144,1.046-.912,2.34-.717,3.6-.528.41.062.8.069,1.208.09a48.164,48.164,0,0,1,5.438.145,7.348,7.348,0,0,0,2.042-.093,3.643,3.643,0,0,1,2.561.378,6.478,6.478,0,0,1,.85-.366.917.917,0,0,1,1.017.187,1.23,1.23,0,0,0,1.482.245,5.958,5.958,0,0,1,2.029-.237c1.282.008,2.564.109,3.847.146.643.019,1.187.5,1.862.361.162-.033.385.128.517.066a1.483,1.483,0,0,1,1.546.225c.426.272.67-.037.926-.433a2.313,2.313,0,0,0,2.163.3.6.6,0,0,1,.519.077,1.918,1.918,0,0,0,1.681.157,8.026,8.026,0,0,1,1.615-.276c.515.008,1.026.205,1.552.258.085.009.175.117.247.1a4.186,4.186,0,0,1,2.091.454,2.438,2.438,0,0,0,1.311.042c1.356-.118,2.721-.134,4.077-.244a5.607,5.607,0,0,1,2.331.7,5.021,5.021,0,0,1,.716.377c.2-.418.679-.167.938-.388.464-.4.924-.152,1.417-.122s.97-.237,1.42.18a.589.589,0,0,0,.488.038,2.5,2.5,0,0,1,1.754.058.933.933,0,0,0,1.025-.023.234.234,0,0,1,.132-.031c.091,0,.208-.032.27.012.646.463,1.477.016,2.112.418a1.713,1.713,0,0,0,1.445.19,1.947,1.947,0,0,1,1.59.147,1.543,1.543,0,0,0,.936.038,15.816,15.816,0,0,1,3.28.227.248.248,0,0,1,.132.037c1.008.765,2.082.37,3.148.2a1.761,1.761,0,0,1,.812.026c.6.2,1.177.464,1.762.7.082.033.2.112.245.083.81-.476,1.576.189,2.41.08a8.564,8.564,0,0,1,2.416.383c.763.132,1.523.292,2.292.365a22.518,22.518,0,0,0,2.476.087,1.367,1.367,0,0,1,1.207.769.608.608,0,0,1,.129.385c-.128.723.171,1.627-.821,2-.08.03-.1.213-.147.327-.168.41-.352.557-.657.5a1.282,1.282,0,0,1-.392-.12,2.51,2.51,0,0,0-2.01-.116,3.529,3.529,0,0,1-1.765-.049c-.758-.152-1.489-.435-2.24-.628a4.681,4.681,0,0,0-.941-.1,7.873,7.873,0,0,1-1.912-.1,16.724,16.724,0,0,0-3.113-.5c-.579-.068-1.15-.2-1.712-.294l-.314-.668a10.293,10.293,0,0,0-1.742-.075c-.472.055-1.031-.1-1.414.354l-1.747-.108.5-.428c-.087-.24-.169-.495-.276-.74-.029-.07-.132-.109-.2-.164l-1.317.746.351.271c-.771-.1-1.4-.182-2.037-.26a24.409,24.409,0,0,0-2.85-.615,1.691,1.691,0,0,0-.755.163,1.364,1.364,0,0,1-1.161-.016l-1.218-.879.069,0c-.164.161-.323.326-.491.482-.41.378-.567.449-.937.155a.874.874,0,0,0-1.277-.034,3.915,3.915,0,0,1-1.674.292c-.151.018-.287-.251-.466-.86-.419-.009-.869-.039-1.315-.02-.358.015-.7.178-1.066-.053-.1-.066-.355.018-.494.1a2.069,2.069,0,0,1-1.815.322,3.234,3.234,0,0,0-1.171.1c.038-.923.038-.923-.6-1.3l-.677.766a8.429,8.429,0,0,1-3.817-.131c-.256.356-.581.734-.39,1.28.689.078,1.357.165,2.029.221a1.47,1.47,0,0,0,.52-.114c.131-.04.292-.188.373-.149,1.186.573,2.431-.269,3.645.183a4.984,4.984,0,0,0,1.619.032c-.077.142-.149.28-.223.418l.134.052.074-.46c.432-.074.647.292.96.464.15.083.4.2.5.14.614-.428,1.157-.092,1.713.108a1.483,1.483,0,0,0,1.2-.034,1.8,1.8,0,0,1,.8-.124c.871.034,1.74.141,2.611.145a2.136,2.136,0,0,1,1.846.828c.471-.482.911-.663,1.454-.146a.914.914,0,0,0,1.039.123,2.146,2.146,0,0,1,1.207-.132,20.928,20.928,0,0,1,4.207.545c.911.233,1.867.336,2.8.532a15.412,15.412,0,0,0,2.714.09,1.939,1.939,0,0,1,.678.093,4.666,4.666,0,0,0,2,.4,1.2,1.2,0,0,1,.769.265,1.711,1.711,0,0,0,1.43.312,9.323,9.323,0,0,1,1.908.117c.455.037.91.077,1.365.115a1.982,1.982,0,0,1,.677.066,10.261,10.261,0,0,0,2.8.637c.311.057.6.2.911.288a1.787,1.787,0,0,0,1.326.023,2.46,2.46,0,0,1,1.2-.1,14.1,14.1,0,0,1,1.62.317,1.331,1.331,0,0,1,1.1,1.626,4.538,4.538,0,0,1-.549,1.251,1.29,1.29,0,0,1-1.417.624c-.9-.151-1.807-.3-2.713-.425a3.492,3.492,0,0,0-1.493-.085,1.872,1.872,0,0,1-.936-.143c-.483-.144-.954-.333-1.508-.53a3.4,3.4,0,0,1-2.726.1,4.657,4.657,0,0,0-1.215-.176,4.826,4.826,0,0,1-2.146-.379c-1.135.051-2.191-.491-3.355-.378a7.1,7.1,0,0,1-2.3-.226c-1.707-.411-3.458-.4-5.18-.646-.359-.052-.716-.12-1.075-.16-.452-.051-.905-.083-1.358-.117-.09-.007-.193.05-.271.021-.287-.1-.628-.393-.832-.314a1.393,1.393,0,0,1-.919-.047,17.083,17.083,0,0,0-1.758-.316,3.8,3.8,0,0,0-1.234.028,1.532,1.532,0,0,1-1.4-.207c-.318-.231-.874-.139-1.325-.18a36.274,36.274,0,0,0-4.371-.316,2.96,2.96,0,0,1-1.725-.2,1.977,1.977,0,0,0-1.07-.01,3.655,3.655,0,0,1-2.156-.175,2.5,2.5,0,0,0-1.614-.075,5.489,5.489,0,0,1-2.437-.074,4.953,4.953,0,0,0-2.664-.186,5.8,5.8,0,0,1-2.438-.1,6.785,6.785,0,0,0-1.748-.287c-1.063.149-2.1-.137-3.125-.056s-2.008-.14-3.012-.079c-.314.019-.634-.026-.946,0-1.458.145-2.922.161-4.384.215-.271.01-.551-.1-.818-.073-.858.083-1.631-.458-2.564-.173-.742.227-1.635-.084-2.42.062-.81.15-1.612.324-2.435.4a1.845,1.845,0,0,1-1.426-.326.989.989,0,0,0-.753-.212c-1.154.344-2.364.125-3.521.393-.4.093-.8.174-1.268.275-.351-.128-.689-.486-1.215-.352a22.7,22.7,0,0,1-2.414.257.894.894,0,0,1-.4.032,4.307,4.307,0,0,0-2.165.042,3.053,3.053,0,0,1-.954.083c-.786-.179-1.374.257-2.328.511.769.223,1.239.384,1.722.487a.927.927,0,0,0,.655-.067c.322-.224.537-.147.862.011.629.306,1.25-.02,1.865-.179a4.589,4.589,0,0,1,1.048-.249c.964-.008,1.931.036,2.894.086a2.3,2.3,0,0,1,1.064.2,2.789,2.789,0,0,0,2.128.133,6.125,6.125,0,0,0,.781-.268,1.16,1.16,0,0,1,1.282.2c.395.386.9.175,1.308.077a1.694,1.694,0,0,1,1.441,0,.7.7,0,0,0,.522-.025,5.243,5.243,0,0,1,3.732-.1.783.783,0,0,0,.379,0c.354-.064.7-.172,1.061-.213a2.407,2.407,0,0,1,2.063.523,1.633,1.633,0,0,0,.448.185c.149-.117.312-.262.491-.378.146-.1.321-.231.472-.219a16.447,16.447,0,0,1,2.05.26,5.1,5.1,0,0,1,1.082.549c.227-.043.583-.117.942-.178s.709-.105,1.12-.166l.286,1.02a1.229,1.229,0,0,1,1.6-.975,3.973,3.973,0,0,0,1.752,0,1.745,1.745,0,0,1,1.073.073,2.5,2.5,0,0,0,1.588.09,2.89,2.89,0,0,1,2.082.389,1.288,1.288,0,0,0,1.308.156.5.5,0,0,1,.4-.032c.792.475,1.606.11,2.411.092.137,0,.309-.05.405.014a3.684,3.684,0,0,0,2.009.335,4.446,4.446,0,0,1,2.393.365.315.315,0,0,0,.269.009c.676-.361,1.417-.05,2.137-.224a3.744,3.744,0,0,1,2,.182,6.075,6.075,0,0,0,2.026.215,2.975,2.975,0,0,1,1.21.14c.577.275,1.171.027,1.753.207a2.731,2.731,0,0,0,1.622.175.932.932,0,0,1,.274-.019c.557,0,.921.639,1.544.45.5-.152.993.1,1.469.111.846.028,1.628.722,2.511.245a.33.33,0,0,1,.264,0c1.175.583,2.424.173,3.633.275.411.035.83-.006,1.237.042.35.042.563.279.618.734a4.844,4.844,0,0,0,.78-.007c.661-.107,1.327-.326,1.909.223a17.216,17.216,0,0,0,1.867.092,1.964,1.964,0,0,1,1.163.136.593.593,0,0,0,.26.088,24.305,24.305,0,0,1,2.787.506c.174.025.426.061.525-.033.51-.476,1.042-.189,1.568-.1a19.05,19.05,0,0,0,2.445.335,16.968,16.968,0,0,1,2.279.439c.353.063.719.05,1.077.09a7.922,7.922,0,0,1,1.221.175,1.655,1.655,0,0,1,.953,2.351c-.079.187-.32.32-.51.44-.3.189-.62.347-.959.532l-2.8-.448a.837.837,0,0,0-.271-.044c-1.47.308-2.781-.42-4.171-.631-.09-.014-.2,0-.268-.056-.828-.661-1.812-.5-2.764-.564s-1.9-.229-2.852-.355a3.176,3.176,0,0,1,.354-.845c.125-.162.249-.273.106-.44a.525.525,0,0,0-.353-.106c-.212-.006-.424.04-.636.033-.54-.016-1.078-.058-1.617-.064-.081,0-.164.13-.371.305a5.143,5.143,0,0,0,1.04.189,1.471,1.471,0,0,1,1.5.95c-.1-.106-.2-.212-.3-.313-.154,0-.3,0-.451,0l.018.132.456-.147a1.387,1.387,0,0,1-1.388.252,2.1,2.1,0,0,0-1.323-.084c-.888.336-1.583-.135-2.338-.369-.361-.111-.41-.447-.424-.775.178-.006.355,0,.529-.021.329-.045.587-.187.627-.56a.14.14,0,0,0-.062-.106c-.3-.18-.5.052-.689.2A2.3,2.3,0,0,0,7314.594,3728.426Zm13.19,1.291.246-.069-.224.1a4.332,4.332,0,0,0-.639.033c-.039.007-.044.2-.064.314a2.8,2.8,0,0,0,.606.056C7327.748,3730.145,7327.758,3729.864,7327.784,3729.716Zm-17.156-2.61c.045.682.188.93.65.983a7.859,7.859,0,0,0,1.069-.035c-.6-.544-1.041-.967-1.745-.913-.623-.013-1.245-.031-1.868-.033-.053,0-.105.108-.264.282A2.027,2.027,0,0,0,7310.628,3727.106Zm-25.03-2.222c-.221-.014-.442-.04-.662-.033-.041,0-.115.138-.105.2a.253.253,0,0,0,.158.174c.319.065.5-.109.605-.39a3.58,3.58,0,0,0,1.788.853,5.292,5.292,0,0,0,.31-.5c.031-.067-.006-.167-.016-.307A3.252,3.252,0,0,0,7285.6,3724.884Zm9.832-4.834-.048-.482c-.792-.052-1.506-.1-2.22-.146-.205-.012-.348.062-.354.3l1.135.712c.2-.247.284-.608.693-.542.27.042.537.088.814.119.224-.043.552.2.654-.317A.909.909,0,0,0,7295.43,3720.05Zm-9.063-5.019a.478.478,0,0,0-.152-.654l-.835.4v1.163c.686-.017.9-.425.99-.95.086.025.17.055.257.071a.419.419,0,0,0,.128-.017c-.043-.029-.09-.085-.132-.083A1.342,1.342,0,0,0,7286.366,3715.031Zm.448,4.969c.074-.245.223-.417.494-.35.574.14,1.138.321,1.714.454.229.053.463.007.429-.375a4.819,4.819,0,0,0-2.891-.439.52.52,0,0,0-.356.347c-.036.3.229.334.465.345.046,0,.092,0,.136,0Zm-2.441-13.643c-.267-.919-.326-.964-1.156-1.014a8.193,8.193,0,0,1-1.5-.143,5.134,5.134,0,0,0-1.689.084l.053.794a3.291,3.291,0,0,1,2.57-.076,5.142,5.142,0,0,0,.679.1c.351.061.745-.062,1.037.242.211-.081.42-.165.633-.242a2.5,2.5,0,0,1,2.791.3c.12.109.4.048.663.07l-.052-.98c-.425-.131-.839-.412-1.087-.305a6.155,6.155,0,0,1-1.722.2A1.634,1.634,0,0,0,7284.373,3706.357Zm-.405,9.355c-.066.282-.187.5-.517.546-.3.038-.65-.081-.873.342.4.245.806.495,1.216.73a.4.4,0,0,0,.263.031,2.014,2.014,0,0,1,1.655.418c.316.215.741-.131.719-.533-.02-.338-.121-.63-.5-.723a6.01,6.01,0,0,1-2.006-.773c.074-.163.158-.322.222-.489s.167-.338.129-.474a1.91,1.91,0,0,0-.341-.508l-1.533,1.292C7282.911,3716.1,7283.456,3715.679,7283.968,3715.712Zm-46.268,6.13a3.785,3.785,0,0,0-.895-.222,11.306,11.306,0,0,0-1.643.165,9.112,9.112,0,0,1-3.134.092,2.247,2.247,0,0,0-1.91.593,2.972,2.972,0,0,0,2.33.056,3.105,3.105,0,0,1,1.627-.082,1.966,1.966,0,0,0,.536.083c.775-.027,1.55-.114,2.323-.094C7237.309,3722.446,7237.4,3722.216,7237.7,3721.842Zm30.312-5.734c.446.458.829.925,1.451.564a.667.667,0,0,1,.521-.032c.7.292,1.449,0,2.165.186a1.17,1.17,0,0,0,.756-.224.487.487,0,0,0-.112-.844.9.9,0,0,0-.918-.007,2.048,2.048,0,0,1-1.317.26c-.685,0-1.368-.033-2.052-.031A1.968,1.968,0,0,0,7268.012,3716.108Zm12.878-.663c-.905.857-1.959.811-2.961.974.323.08.645.068.952.128a7.442,7.442,0,0,1,1.051.312c.287.1.563.236.829.35l1.115-.718Zm-5.406-10.329.922.954c.663-.231,1.347-.469,2.028-.713.024-.008.025-.08.059-.2l-1.211-.563Zm-8.266,10.989-1.758-.631a10.1,10.1,0,0,0-1.615.767C7265,3716.832,7266.018,3716.452,7267.218,3716.106Zm-42.791,6.546c.161.076.243.148.32.145,1.217-.07,2.433-.149,3.647-.23a.156.156,0,0,0,.1-.088c.013-.03-.013-.078-.027-.156a2.634,2.634,0,0,0-.507-.094,22.34,22.34,0,0,1-3.188.057C7224.68,3722.273,7224.554,3722.511,7224.427,3722.652Zm80.961,3.618a6.954,6.954,0,0,0-2.492.441c.235.189.392.418.535.41a10.434,10.434,0,0,0,1.6-.235C7305.133,3726.866,7305.186,3726.636,7305.388,3726.271Zm-108.793-11.426c1.48.346,1.832.289,2.521-.335C7198.208,3714.258,7197.438,3714.792,7196.595,3714.845Zm69.834,9.244a2.545,2.545,0,0,0,2.416-.117C7267.922,3723.666,7267.9,3723.667,7266.429,3724.088Zm-23.484-2.321a2.591,2.591,0,0,0-1.736-.234c-.308.045-.5.237-.2.612A4.23,4.23,0,0,0,7242.944,3721.767Zm51.58,3.835c.563.206,1.048.414,1.552.549.176.047.568-.077.573-.14.022-.374-.235-.238-.456-.2a.426.426,0,0,1-.349-.125,1.54,1.54,0,0,0-1.284-.543.455.455,0,0,0-.055.131C7294.5,3725.36,7294.515,3725.45,7294.524,3725.6Zm-1.009-16.516c1.734.139,1.734.139,2.088-.365C7294.607,3708.376,7294.576,3708.38,7293.516,3709.086Zm13.589,12.158a11.047,11.047,0,0,0-1.142.275c-.083.03-.152.225-.145.339a.465.465,0,0,0,.192.319.541.541,0,0,0,.778-.214A7.134,7.134,0,0,0,7307.1,3721.244Zm-67.013.663c-.934-.308-.942-.32-1.384,0-.107.078-.132.269-.245.52.384-.147.62-.251.864-.328S7239.837,3721.97,7240.092,3721.907Zm36-4.59.731-.942a10.266,10.266,0,0,0-1-.3c-.087-.018-.205.12-.332.2Zm-65.85-4.068c-1.816,0-1.816,0-2.542.458.878-.119,1.684-.227,2.489-.341C7210.208,3713.363,7210.221,3713.289,7210.238,3713.249Zm13.843-6.308c-.705.138-1.412.273-2.117.417-.021,0-.027.082-.04.126A3.233,3.233,0,0,0,7224.081,3706.941Zm-10.994,1.487a6.557,6.557,0,0,0,2.135-.333c.036-.012.034-.142.061-.268-.723.129-1.428.255-2.132.387C7213.132,3708.218,7213.127,3708.288,7213.087,3708.428Zm48.847-.786c.571.388.571.388,1.33-.249A1.113,1.113,0,0,0,7261.934,3707.643ZM7276.891,3724c-.331-.029-.552-.062-.772-.064s-.462-.061-.583.21c-.081.182.227.433.558.447S7276.714,3724.519,7276.891,3724Zm-3.262-19.034c-.131.16-.268.266-.308.4a.341.341,0,0,0,.174.292,1.656,1.656,0,0,0,.628,0c.048-.009.122-.279.079-.32A3.609,3.609,0,0,0,7273.629,3704.964Zm-2.09.459c.492-.114.857.167,1.4-.042l-1.035-.69Zm-7.417,18.751a6.861,6.861,0,0,0,.9.219c.207.018.4-.267.366-.463a.394.394,0,0,0-.5-.292A7.287,7.287,0,0,0,7264.122,3724.174Zm-50.816-.929a1.089,1.089,0,0,0,1.05.293c.2-.053.472-.034.479-.461A4.45,4.45,0,0,0,7213.306,3723.245Zm76.825-7.759-.072.721a3.474,3.474,0,0,0,.595.1,2.794,2.794,0,0,0,.538-.12Zm-17.91,8.716c-.631-.164-.631-.164-.942.138C7271.563,3724.585,7271.836,3724.556,7272.221,3724.2Zm28.065,3.282c.506-.646.506-.646,0-1.481Zm23.991,1.631-.085-.27-.786-.056.16.8Zm-42.21-21.554c-.7.044-.7.044-.813.7Zm-7.263,8.577c-.154.024-.3.054-.455.067-.17.016-.393-.007-.283.261.032.078.239.143.346.119C7274.6,3716.541,7274.862,3716.506,7274.8,3716.137Zm14.554,9.315a3.681,3.681,0,0,0-.546-.506c-.061-.036-.253.053-.312.136a.329.329,0,0,0,.246.489A2.216,2.216,0,0,0,7289.358,3725.452Zm12.107-5.117-.147.214a5.59,5.59,0,0,0,.5.4c.038.024.18-.045.22-.107s.042-.226.007-.247A5.831,5.831,0,0,0,7301.466,3720.335Zm-45.654,3.738a2.293,2.293,0,0,0-.471-.178c-.213-.016-.365.1-.33.322a.607.607,0,0,0,.215.286A6.149,6.149,0,0,0,7255.812,3724.073Zm41.3-8.538v.118h1.011v-.118Zm-43.332-10.136.132-.2c-.076-.034-.159-.1-.224-.091s-.09.123-.133.189Zm-8.09,18.618c-.095-.1-.146-.209-.2-.209-.229,0-.271.168-.241.352.011.068.088.125.135.188Zm33.037-16.271c-.389-.049-.663-.229-1.022.137A.943.943,0,0,0,7278.724,3707.746Zm-5.5,16.684a5.071,5.071,0,0,0,.846.1c.077-.006.142-.162.212-.249-.107-.047-.222-.142-.322-.13A4.227,4.227,0,0,0,7273.225,3724.43Zm45.114-1.221a2.361,2.361,0,0,0,.633-.014c.068-.025.083-.2.123-.3a1.124,1.124,0,0,0-.356-.018C7318.646,3722.9,7318.574,3723.006,7318.339,3723.209Zm1.32-5.37c-.209-.039-.473-.209-.553.23Zm-41.788-3.886a1.43,1.43,0,0,0-.229.348c-.014.057.1.208.13.2.107-.025.272-.086.286-.158C7278.074,3714.253,7277.967,3714.138,7277.871,3713.954Zm23.352,1.846.04.2.537-.129-.032-.154Zm-59.539-7.6a1.791,1.791,0,0,0-.2.328c-.008.022.142.148.181.133a1.721,1.721,0,0,0,.328-.216Zm-18.275,14.368c-.068-.04-.145-.12-.2-.11s-.118.106-.177.165l.262.158Zm59.849,2.051c.035.069.055.172.109.2s.146-.026.22-.044l-.146-.289Zm.477-16.6a2.429,2.429,0,0,0-.285.223.548.548,0,0,0,.123.175,2.752,2.752,0,0,0,.335-.195Zm-34.783,15.77-.209.12a1.335,1.335,0,0,0,.295.146c.028.007.088-.116.133-.18Zm9.692-4.95-.191.087c.057.027.118.08.169.072s.09-.08.133-.125Zm-1.6,5.128-.3.063a1.3,1.3,0,0,0,.152.3c.023.028.147-.031.226-.051Zm36.169,1.626a2.254,2.254,0,0,0-.139.183s.064.076.087.069a1.107,1.107,0,0,0,.2-.091Zm4.289-16.863-.106-.028a1.489,1.489,0,0,0-.021.2c0,.008.066.016.1.023C7297.487,3708.855,7297.5,3708.791,7297.5,3708.727Zm-18.315,15.707-.1.222c.076.029.164.1.226.077s.069-.133.1-.2C7279.339,3724.5,7279.265,3724.464,7279.188,3724.433Zm2.683-10.33a.731.731,0,0,0-.1.024,1.042,1.042,0,0,0,.04.2.55.55,0,0,0,.1-.015C7281.9,3714.242,7281.883,3714.172,7281.871,3714.1Zm-13.033-6.816-.2.3c.074.039.177.127.216.1a1.055,1.055,0,0,0,.224-.242Zm18.53,5.482c-.082.024-.185.025-.235.077-.029.03.023.141.04.216a.7.7,0,0,0,.229-.1C7287.429,3712.939,7287.382,3712.837,7287.368,3712.77Zm-25.634,1.712a1.53,1.53,0,0,0-.052.359c0,.033.139.055.212.082a1.234,1.234,0,0,0,.1-.317C7262,3714.577,7261.855,3714.537,7261.734,3714.482Zm-2.043,9.43-.12.163c.065.041.128.106.2.115.033,0,.08-.1.122-.149Zm46.167-13.665a1.463,1.463,0,0,0,.107-.185c0-.011-.066-.077-.079-.07a1.367,1.367,0,0,0-.172.121Zm.138,5.9.142-.158c-.032-.021-.085-.069-.093-.062a1.472,1.472,0,0,0-.145.152Zm3.44.86c.07.034.16.112.205.092.063-.029.094-.131.139-.2-.071-.035-.161-.112-.211-.092S7309.479,3716.934,7309.437,3717.005Zm-32.062,8c-.009-.031-.009-.081-.026-.089a.3.3,0,0,0-.117,0l.036.135Zm32.151-3.446-.056-.108a1.873,1.873,0,0,0-.177.144c-.006.006.038.062.059.095Zm-32.254-7.276a.341.341,0,0,0,0-.125c-.006-.015-.067-.01-.1-.014a.344.344,0,0,0,0,.126C7277.173,3714.281,7277.235,3714.275,7277.271,3714.279Zm30.49,2.175.12.035.017-.162c-.042.006-.092,0-.122.022S7307.766,3716.418,7307.762,3716.454Zm-28.349-13.075-.1.052c.028.024.056.065.087.068s.067-.03.1-.048Zm-5.4,12.007-.076-.013.016.073Zm42.9,7.784c.013-.033.046-.075.035-.1s-.061-.032-.095-.047c-.013.033-.044.074-.033.094S7316.886,3723.154,7316.918,3723.17Zm-42.056-15.282a1.889,1.889,0,0,0,.126-.168s-.064-.072-.081-.065a1.2,1.2,0,0,0-.183.11ZM7217.8,3723.3l.057-.1-.158.059Zm81.887-15.9h-.1l.061.157c.027-.021.072-.038.077-.062S7299.7,3707.437,7299.687,3707.408Zm-75.19,17.636a.625.625,0,0,0-.109-.008,1.1,1.1,0,0,0-.029.212.725.725,0,0,0,.114.02C7224.479,3725.192,7224.487,3725.119,7224.5,3725.043Zm57.833.152-.068-.09-.04.088Zm20.361-15.536.017-.1-.091.044Zm-23.059,10.535a.939.939,0,0,0,.162.118c.019.009.095-.05.093-.056-.029-.065-.067-.126-.1-.188Zm5.286-2.232-.11-.015.029.1Zm-44.043,1.155c-.023.068-.086.159-.062.2.036.062.132.088.2.129.024-.075.088-.166.065-.221S7240.947,3719.151,7240.875,3719.117Zm19.357-.358.115-.008-.07-.169c-.031.022-.083.041-.088.069S7260.217,3718.723,7260.232,3718.759Zm5.936-13.481.117-.013-.05-.179c-.032.024-.082.042-.093.074S7266.158,3705.238,7266.168,3705.278Zm22.226,9.723a1.084,1.084,0,0,0,.186.1c.019.006.076-.046.079-.075s-.047-.09-.066-.087A1.036,1.036,0,0,0,7288.394,3715Zm3.989-.1c.016-.031.044-.062.044-.093s-.027-.062-.043-.093c-.017.032-.044.063-.044.1S7292.366,3714.867,7292.383,3714.9Zm-21.857.175a.42.42,0,0,0,.126,0c.012,0,.008-.062.012-.095a.4.4,0,0,0-.125,0C7270.525,3714.979,7270.529,3715.038,7270.525,3715.071Zm22.024-9.75.07-.055-.073-.03Zm-5.733,12.255c.027.029.053.078.081.08s.072-.034.108-.054l-.143-.132Zm-16.033-3.114c.026.021.052.055.081.057s.063-.024.1-.039c-.027-.021-.053-.055-.081-.058S7270.815,3714.448,7270.783,3714.462Zm-58.78-1.37c-.033-.068-.05-.165-.105-.2-.038-.023-.128.04-.2.064.027.068.04.178.087.194S7211.931,3713.117,7212,3713.092Zm60.761-4.364.045-.051h-.09Zm-29.063-.4-.014.1.114-.036Zm-2.884,5.257,0,.08.085-.035Zm-.776-5.491-.009.091.1-.038Zm14.944,5.749a.285.285,0,0,0-.094.029c-.009.007.012.053.02.081a.274.274,0,0,0,.094-.03C7255.013,3713.92,7254.992,3713.875,7254.984,3713.846Zm4.859-8.3c-.03.022-.078.041-.085.069s.023.071.037.107l.146-.122Zm-6.724,8.208.1.012-.034-.108Zm-.132,8.362c-.032.021-.082.039-.09.068s.027.066.045.1l.146-.118Zm-.4-14.394.04.081.039-.081Zm-14.437,6.159-.1.051c.028.023.055.062.085.065s.063-.03.1-.047Zm-7.737,4.123-.01.087.094-.033Zm75.273-.721.106.039.015-.157a.3.3,0,0,0-.11.027C7305.679,3717.2,7305.688,3717.247,7305.685,3717.278Zm-9.118-12.515,0,.1.113-.048Zm2.243,16.936.082-.038-.08-.041Zm23.091,1.632-.026-.1a.276.276,0,0,0-.11.037c-.013.012.014.065.022.1Zm-42.645-5.835.07.052.015-.077Zm-4.545-3.268.1.043-.065-.141Zm5.642,10.18.076.054.016-.08Zm-.229-16.583a.308.308,0,0,0-.091-.027c-.01,0-.019.048-.027.074a.267.267,0,0,0,.089.026C7280.106,3707.9,7280.114,3707.85,7280.124,3707.824Zm-14.687,10.441-.093.07.08.084.117-.116Zm-2.931-2.057.055.108.056-.107Zm11.5,2.612-.109.028.135.067Zm16.455,6.539-.047.146.086-.024Zm-1.714-9.348.081.009-.033-.091Zm4.912,10.947.009-.1-.108.042Zm-8.578-2.476.01-.09-.094.036Zm-.471-15.878.073,0-.032-.082Zm-1.414,5.571-.08.037.076.042Z" transform="translate(0 -27.921)" fill="#0e0e98"/>
    <path id="Path_24" data-name="Path 24" d="M7185.969,3647.409a25.665,25.665,0,0,0-2.56.491c-.951.278-1.477-.041-1.9-1.065a3.815,3.815,0,0,1-.13-1.36.726.726,0,0,1,.214-.483,3.121,3.121,0,0,1,.865-.657c.842-.354,1.712-.64,2.572-.95.3-.109.61-.2.91-.314a13.3,13.3,0,0,1,3.165-.907,18.806,18.806,0,0,0,2-.517q2.077-.489,4.164-.936a5.655,5.655,0,0,1,.825-.014c.407-.024.818,0,1.123-.4.115-.152.4-.2.618-.247.989-.21,1.98-.4,2.971-.6a4.536,4.536,0,0,1,1.769-.085,1.589,1.589,0,0,0,1.527-.43.789.789,0,0,1,.887-.216,3.514,3.514,0,0,0,1.9,0c.682-.1,1.363-.21,2.041-.333,4.247-.77,8.522-1.337,12.807-1.841.812-.1,1.663.069,2.455-.09,1.857-.374,3.745-.338,5.613-.535a29.524,29.524,0,0,1,3.7-.134,17.556,17.556,0,0,0,2.593-.246c.815-.1,1.64-.151,2.459-.228.411-.039.82-.106,1.232-.131a15.513,15.513,0,0,1,1.787-.057c1.541.087,3.079.237,4.625.193a4.018,4.018,0,0,1,.687-.029c.829.126,1.6-.545,2.428-.2.759.319,1.547.034,2.311.186a1.948,1.948,0,0,0,.823.013,8.058,8.058,0,0,1,3.135,0,10.113,10.113,0,0,0,2.606-.031,5.148,5.148,0,0,1,2.448.1.5.5,0,0,0,.265.059c.962-.261,1.912.115,2.868.044a2.856,2.856,0,0,1,1.484.178c.176.082.431-.013.649-.016.547,0,1.1-.039,1.641,0,1.372.1,2.743.326,4.115.325a22.26,22.26,0,0,1,3.671.378,3.473,3.473,0,0,0,.683.059,35.642,35.642,0,0,1,6.585.525,11.739,11.739,0,0,0,1.923.036,1.071,1.071,0,0,1,1.022.576c.5.876.831,1.766,0,2.736a8.026,8.026,0,0,1-2.246-.08c-1.548-.178-3.093-.414-4.646-.545q-2.808-.237-5.629-.332c-1.929-.065-3.859-.054-5.79-.066-2.391-.015-4.781-.052-7.171-.015-1.469.023-2.935.176-4.4.251-.734.037-1.471.017-2.205.048q-3.374.143-6.745.313c-.068,0-.132.1-.322.252.845,0,1.568-.018,2.292,0,.915.028,1.829.088,2.743.135a1.638,1.638,0,0,0,.275.014c2.063-.257,4.116.211,6.177.1a40,40,0,0,1,4.381.232c.773.043,1.549.049,2.324.069a9.5,9.5,0,0,1,1.238.029,36.091,36.091,0,0,0,4.119.238c.964.042,1.922.2,2.884.256,1.6.1,3.207.139,4.808.237a29.683,29.683,0,0,1,4.386.377c1.666.356,3.357.305,5.023.594a20.522,20.522,0,0,0,3.4.026,2.224,2.224,0,0,1,.949.073,6.1,6.1,0,0,0,2.692.4c.774.033,1.538.266,2.313.347.955.1,1.918.117,2.875.2a7.394,7.394,0,0,1,2.4.476,11.546,11.546,0,0,0,2.368.615,1.871,1.871,0,0,1,1.266.739c-.049.425-.385.508-.691.536-.5.045-1.01.007-1.514.031-.639.029-.752.148-.748.856a2.873,2.873,0,0,1-.788,2.207c-1.546-.212-3.13-.435-4.716-.644-1.183-.155-2.365-.325-3.553-.428-2.793-.243-5.6-.385-8.381-.694-2.155-.239-4.312-.112-6.465-.248-.274-.017-.554.033-.825,0-2.7-.365-5.412-.14-8.117-.251q-2.476-.1-4.953-.136c-1.974-.027-3.949-.05-5.923-.019-1.468.024-2.934.182-4.4.2a35.916,35.916,0,0,0-4.948.281,2.793,2.793,0,0,1-1.361-.024,1.965,1.965,0,0,0-.806,0c-.682.074-1.362.163-2.041.26-1.817.258-3.654.191-5.48.3-1.506.088-3.015.191-4.523.226a15.462,15.462,0,0,0-2.73.311,20.584,20.584,0,0,1-3.133.338,12.583,12.583,0,0,0-3.124.418.844.844,0,0,1-.269.058c-2.041-.093-3.945.8-5.97.834a5.085,5.085,0,0,0-.775.151c.208.168.309.314.389.3a18.752,18.752,0,0,0,3.129-.4,1.985,1.985,0,0,1,.68-.078,24.4,24.4,0,0,0,3.955-.381c1.323-.141,2.646-.285,3.97-.417.318-.031.641-.027.961-.03a28.9,28.9,0,0,0,4.938-.375,3.327,3.327,0,0,1,.688-.034c1.971.056,3.932-.26,5.9-.156a4.989,4.989,0,0,0,1.094-.094,30.846,30.846,0,0,1,4.384-.224c1.556-.04,3.108-.17,4.664-.229a11.875,11.875,0,0,1,2.055.058,7.2,7.2,0,0,0,1.777-.012,3.636,3.636,0,0,1,.825-.037,35.673,35.673,0,0,0,5.369-.073,3.4,3.4,0,0,1,.548-.013,42.385,42.385,0,0,0,6.992.167,3.075,3.075,0,0,1,.956.069,3.974,3.974,0,0,0,2.038.08,2.429,2.429,0,0,1,.678.04,59.164,59.164,0,0,0,6.044.2c.321-.007.643,0,.964.022,1.009.057,2.018.12,3.025.182a4.876,4.876,0,0,0,.825.046c.557-.063.859.661,1.533.39a3.915,3.915,0,0,1,1.472,0c.549.019,1.1.033,1.646.069a9.6,9.6,0,0,0,1.632.125,14.93,14.93,0,0,1,3.1.377,54.338,54.338,0,0,1,6.395.8c.578.124,1.258-.089,1.868.085a11.757,11.757,0,0,0,2.442.368c1.92.129,3.8.549,5.715.817a2.538,2.538,0,0,1,.668,1.616,1.377,1.377,0,0,1-1.45,1.5,6.23,6.23,0,0,1-1.781-.122c-2.705-.546-5.439-.888-8.173-1.233-1.684-.213-3.365-.438-5.048-.657a.593.593,0,0,0-.137-.016c-1.811.182-3.55-.387-5.333-.5-1.053-.066-2.109-.086-3.164-.137-1.465-.071-2.929-.155-4.394-.225-1.054-.051-2.108-.076-3.161-.135-.823-.045-1.646-.115-2.468-.19a19.929,19.929,0,0,0-2.187-.108,8.973,8.973,0,0,1-3.015-.112,2.168,2.168,0,0,0-.957.023,22.018,22.018,0,0,1-4.951.041c-.319-.02-.642,0-.962,0-.5-.01-1,.008-1.494-.051a5.252,5.252,0,0,0-2.311-.009,2.8,2.8,0,0,1-.958.033c-1.6-.075-3.2-.02-4.8-.078-.866-.031-1.737.122-2.607.159-.918.039-1.838.025-2.756.06-1.423.052-2.845.124-4.267.191-.642.03-1.284.058-1.925.1-1.786.13-3.57.269-5.355.406-.595.045-1.189.119-1.784.133a22.249,22.249,0,0,0-3.7.306,18.606,18.606,0,0,1-2.738.141c-.274.011-.552,0-.824.025q-3.771.387-7.538.786-2.666.282-5.3.785c-.766.146-1.548.2-2.319.326-1.951.309-3.9.622-5.85.952-2.537.43-5.076.856-7.605,1.325-2.3.426-4.592.915-6.89,1.359-.583.113-1.183.141-1.769.239-1.039.175-2.083.342-3.111.569a26.076,26.076,0,0,1-6.009.687,3.83,3.83,0,0,1-2.308-.764,1.85,1.85,0,0,1-.853-2.25,3.776,3.776,0,0,1,.159-.527,1.081,1.081,0,0,1,.184-.233c2.164-.095,4.378-.011,6.552-.876a4.559,4.559,0,0,1,.214-3.4,15.48,15.48,0,0,0,4.019-.476c2.155-.446,4.315-.87,6.455-1.381a17.347,17.347,0,0,1,2.549-.437,16.022,16.022,0,0,0,2.543-.556c.755-.194,1.5-.433,2.246-.654a2.21,2.21,0,0,1,.658-.19c1.946.095,3.77-.649,5.677-.818a10.985,10.985,0,0,0,1.468-.362c.422-.1.849-.175,1.3-.266-.116-.127-.172-.241-.23-.243a25.046,25.046,0,0,0-3.3-.024c-1.73.193-3.442.543-5.16.835-1.041.177-2.083.357-3.12.555-1.8.344-3.6.7-5.4,1.056-1.712.335-3.435.625-5.134,1.017-2.5.579-5.025,1.07-7.556,1.53-1.484.27-2.931.753-4.4,1.134a4.932,4.932,0,0,1-.81.147,1.2,1.2,0,0,1-1.331-1.474c.041-.407.115-.811.187-1.3a21.741,21.741,0,0,0,5.405-1.285c.393-.121.817-.138,1.209-.263.513-.162,1.108-.2,1.408-.762.41.27.8.056,1.187-.054.352-.1.689-.246,1.041-.343s.728-.126.973-.562A13.882,13.882,0,0,0,7185.969,3647.409Zm40.482-2.832a1.709,1.709,0,0,0,1.176.1c-.035-.073-.056-.147-.073-.147-.365.012-.73.033-1.1.053a15.6,15.6,0,0,0-2.309.344,5.988,5.988,0,0,0,.651.074,6.307,6.307,0,0,0,1.081-.081A2.386,2.386,0,0,0,7226.451,3644.577Zm-7.088,1.1c-.408-.043-.816-.107-1.227-.121-.146-.006-.4.029-.24.345l1.463-.22c.354-.03.711-.049,1.063-.091.319-.038.7.081.954-.294a2.492,2.492,0,0,0-1.808.059C7219.473,3645.408,7219.434,3645.569,7219.363,3645.68Zm-28.513.547c-.225-.117-.448-.224-.82.2l.8-.222q2.566-.52,5.132-1.039c.586-.118,1.174-.226,1.759-.346,1.572-.322,3.141-.663,4.717-.966.853-.164,1.727-.228,2.575-.406,1.077-.227,2.128-.588,3.209-.777a13.249,13.249,0,0,1,4.073-.542,1.3,1.3,0,0,0,.663-.136,7.014,7.014,0,0,1,3.225-.569,2.5,2.5,0,0,0,1.214-.141,3.338,3.338,0,0,1,2.133-.3.7.7,0,0,0,.4-.042c.284-.145.543-.338.826-.486.253-.132.641.037.858-.358a6.562,6.562,0,0,0-2.375.032c-1.131.156-2.255.358-3.386.513-1.089.149-2.187.236-3.272.4-3.313.508-6.61,1.109-9.879,1.853-.67.152-1.356.224-2.024.382-1.652.392-3.3.793-4.944,1.23-1.286.342-2.561.731-3.831,1.127C7191.519,3645.757,7191.077,3645.815,7190.851,3646.227Zm31.808-6.333c.5.448.5.448,1.232.41a2.482,2.482,0,0,0,1.937-.846A17.467,17.467,0,0,0,7222.658,3639.893Zm20.067,3.643c-.617-.274-1.06-.469-1.562-.243-.2.088-.434.156-.354.508A2.512,2.512,0,0,0,7242.726,3643.536Zm-25.861,2.355c-.57.146-1.241-.292-1.836.357A2.307,2.307,0,0,0,7216.864,3645.891Zm18.261-1.79c-.762-.337-.762-.337-1.632.174Zm-8.684-4.673c.444.385.444.385.9.109C7227.087,3639.116,7226.779,3639.292,7226.441,3639.429Zm3.624-.362.021.2,1.112-.2-.11-.065Zm7.326,4.806h.873C7237.862,3643.45,7237.862,3643.45,7237.392,3643.873Zm11.966-.681.021.176.611-.04-.006-.136Zm-16.6-4.349c-.033.016-.083.024-.1.051s.014.07.022.106l.154-.085Zm-17.851,11.542-.141.148a.734.734,0,0,0,.084.071,1.761,1.761,0,0,0,.145-.151Zm24.389-6.715-.19.114a.644.644,0,0,0,.228.091c.063,0,.127-.07.19-.109Zm-16.628,1.426-.1.04c.025.021.05.057.078.06s.063-.023.1-.037Zm-5.133,5.089-.1-.017.024.1Zm27.708-6.8c.024.023.05.067.074.066s.065-.035.1-.056l-.125-.115Zm-.312-3.3-.1.073a.9.9,0,0,0,.175.109c.022.008.066-.042.1-.067Zm-.647,3.354-.009.077.088-.031Zm6.683-.2-.074-.051-.016.075Z" transform="translate(-2.015)" fill="#0e0e98"/>
    <path id="Path_25" data-name="Path 25" d="M7278.594,3765.323a3.9,3.9,0,0,0-2.964-.932c-.629.035-1.262,0-1.893-.015a.774.774,0,0,0-.668.389l.01,0a2.908,2.908,0,0,0-2.6-.992c-.179.2-.388.431-.584.649a.92.92,0,0,1-.291,0,11.3,11.3,0,0,0-1.646-.65,6.08,6.08,0,0,0-1.89-.122,5.736,5.736,0,0,1-2.287-.227,2.242,2.242,0,0,0-1.326-.029c-.519.145-1.068.173-1.6.281a.705.705,0,0,0-.456.251c-.238.461-.64.468-1.057.457-.82-.021-1.643-.031-2.46-.092-.19-.014-.365-.213-.548-.327l-.013,0c-.1-.136-.172-.349-.3-.394a1.494,1.494,0,0,0-1.757.333c-.073.082-.253.069-.41.106l-.176-.6c-.108.015-.227,0-.272.044-.428.457-.769,1.042-1.518.989-.349-.425.2-.65.193-1.023-.122-.023-.281-.108-.365-.06-.224.125-.534.272-.6.475-.178.579-.628.632-1.069.624-.543-.011-1.082-.141-1.625-.2a1.606,1.606,0,0,1-1.2-.724l-.271.4c-.217-.189-.413-.481-.675-.556a2.833,2.833,0,0,0-.92.078,2.2,2.2,0,0,1-.4-.036c-.007-.083-.013-.164-.02-.245l.014.256-1.161-.2c-.21.478-.425.967-.674,1.537a1.129,1.129,0,0,1-1.088.129,1.846,1.846,0,0,0-1.556-.232.635.635,0,0,1-.506-.148,8.021,8.021,0,0,1-.942-.989c-.084-.106-.013-.334-.013-.554l2.735-.158c.113-.333-.071-.337-.26-.385-.4-.1-.783-.233-1.231-.37a4.652,4.652,0,0,1-1.074.343c-1.448.122-2.9.187-4.353.268a.852.852,0,0,1-.4-.043,5.716,5.716,0,0,0-3.244-.164,7.072,7.072,0,0,1-1.642-.015,8.118,8.118,0,0,0-1.222-.021c-.453.009-.914.153-1.342-.125-.072-.046-.2-.091-.26-.059-.849.448-1.8.047-2.673.341a3.7,3.7,0,0,1-1.085.107c-1.09.021-2.181,0-3.269.042-1.238.049-2.475.142-3.711.232-.595.043-1.187.13-1.781.188-.546.053-1.092.092-1.638.138-1.141.1-2.283.179-3.422.29-1.415.138-2.83.284-4.242.454-1.32.159-2.636.358-3.954.533q-1.02.135-2.042.246-3.63.394-7.26.78a75.105,75.105,0,0,1-9.358.357,4.005,4.005,0,0,1-2.454-.755,1.843,1.843,0,0,1-.835-1.769,7.005,7.005,0,0,0,.025-1.642,1.244,1.244,0,0,1,.575-1.3c.6-.405,1.243-.76,1.912-1.164-.117-.481-.264-.959-.349-1.447-.149-.869.113-1.333.956-1.534,1.379-.33,2.771-.6,4.16-.885,2.333-.482,4.667-.953,7-1.44,1.662-.347,3.318-.726,4.983-1.057a9.9,9.9,0,0,1,1.772-.184c1.189-.019,2.333-.4,3.523-.4a1.186,1.186,0,0,0,.525-.12,3.762,3.762,0,0,1,2.271-.375,1.718,1.718,0,0,0,.674-.045c1.768-.5,3.631-.388,5.407-.852a10.408,10.408,0,0,1,1.636-.123c1.916-.18,3.832-.371,5.749-.557a1.325,1.325,0,0,1,.273-.025,12.7,12.7,0,0,0,3.554-.3,3.79,3.79,0,0,1,1.5-.061,1.763,1.763,0,0,0,.945-.083c.6-.214,1.175.059,1.757,0a5.166,5.166,0,0,1,1.623-.156,4.684,4.684,0,0,0,1.987-.129,22.219,22.219,0,0,1,2.6-.109c.319-.012.637-.069.955-.082,1-.04,2.011-.074,3.017-.1a.6.6,0,0,1,.38.132,1.091,1.091,0,0,0,1.164.12,9.212,9.212,0,0,1,3.519-.349,11.464,11.464,0,0,0,3-.11,3.6,3.6,0,0,1,1.888.136,7.3,7.3,0,0,0,1.875.207.3.3,0,0,0,.228-.112c.32-.482.793-.389,1.245-.329.771.1,1.537.237,2.308.338a3.418,3.418,0,0,0,.94.029,9.342,9.342,0,0,1,1.045-.29c1.51-.037,3.021-.031,4.531-.015a4.554,4.554,0,0,1,.789.193,3.532,3.532,0,0,0,1.068.159,13.855,13.855,0,0,1,3,.063,6.106,6.106,0,0,0,1.642-.056,5.385,5.385,0,0,1,2.308.1,14.113,14.113,0,0,0,1.48.244.608.608,0,0,0,.39-.067,3.609,3.609,0,0,1,2.746-.2c.044.006.088.052.126.047a3.294,3.294,0,0,1,2.134.01,7.373,7.373,0,0,0,2.026.254,11.428,11.428,0,0,1,2.844.417,1.383,1.383,0,0,0,1.292-.322l-.01,0a1.515,1.515,0,0,0,1.849.473,1.647,1.647,0,0,1,.669.022,3.1,3.1,0,0,0,1.347-.133,1.417,1.417,0,0,1,1.764.292.71.71,0,0,0,.5.158c.54-.007,1.078-.052,1.761-.09.217.33.689.4,1.221.38.441-.013.909-.173,1.328.148a.483.483,0,0,0,.4.051,3.374,3.374,0,0,1,2.278.252,1.149,1.149,0,0,0,1.158-.125.816.816,0,0,1,.916-.023,2.264,2.264,0,0,0,2.058.243,5.836,5.836,0,0,1,2.514.291,1.177,1.177,0,0,0,.764.139,12.738,12.738,0,0,1,2.576.235c1.3.214,2.549.772,3.905.63a.711.711,0,0,1,.407.036c.785.464,1.7.167,2.521.461a2.387,2.387,0,0,0,.812.008,2.215,2.215,0,0,1,1.807.468c.058.059.178.135.229.113,1.029-.456,1.879.681,2.892.32a3.045,3.045,0,0,0,1.722.356c.924.465,2.007,0,2.934.5.13.071.353-.038.533-.042a3.291,3.291,0,0,1,.959.016,23.993,23.993,0,0,0,2.7.4c1.253.21,2.5.467,3.744.72a8.738,8.738,0,0,1,.914.288c.172.056.361.192.514.159,1.141-.245,2.136.472,3.232.46.777-.008,1.555-.058,2.332-.071a2.41,2.41,0,0,1,1.3.374,1.309,1.309,0,0,1,.748,1.45,7.712,7.712,0,0,1-.937,2.55c-.779.422-1.487-.328-2.2.063.924,2.251.9,2.519-.371,4.2a10.692,10.692,0,0,1-2.852-.107c-1.539-.261-3.088-.461-4.633-.687a2.853,2.853,0,0,1-.41-.051c-1.983-.59-4.069-.67-6.062-1.225-.35-.1-.726-.1-1.086-.166a2.768,2.768,0,0,1-.92-.235,3.658,3.658,0,0,0-1.847-.48,45.981,45.981,0,0,1-4.743-.717,4.515,4.515,0,0,0-.808-.155c-.794.049-1.026-.436-1.124-1.082a1.638,1.638,0,0,0,.38-.046c.055-.019.076-.131.113-.2-.1-.024-.253-.1-.293-.06a1.047,1.047,0,0,0-.164.343l-.556.7-.394-.614a3.3,3.3,0,0,0-1.851.174.762.762,0,0,1-.625.037c-.139-.089-.132-.387-.215-.583-.03-.072-.136-.112-.276-.221l-.5.653c-1.673-.285-3.511.055-5.1-1.078a2.387,2.387,0,0,1-1.888.218c-.4-.086-.8-.181-1.2-.275.212-.093.417-.182.629-.278.084.006.162.022.24.027.017,0,.035-.037.053-.056l-.323.05a1.514,1.514,0,0,0-.366-.326c-.218-.094-.329.057-.266.329.02.083.038.166.057.249a3.043,3.043,0,0,1-.677.06c-.275-.036-.507-.112-.377-.533.063-.2-.121-.5-.245-.729-.166-.3-.373-.227-.678.293-.68-.1-1.4-.2-2.11-.307-.087-.014-.216-.04-.247-.1-.385-.746-1.01-.488-1.64-.5a10.542,10.542,0,0,1-2.169-.519l-.806.39a8.231,8.231,0,0,1-1.111-.417,3.485,3.485,0,0,0-3.147-.189.609.609,0,0,1-.747-.162c-.253-.288-.55.34-.831-.062a3,3,0,0,0-.694-.524,1.853,1.853,0,0,1-1.364.525c-.039,0-.084.3-.126.466l.035-.037-.75.538v-1.243c-.317-.026-.583-.045-.849-.069-.225-.02-.526.04-.662-.082-.723-.648-1.452-.34-2.175-.067-.279.105-.558.192-.782.008a2.381,2.381,0,0,0-1.422-.412,2.882,2.882,0,0,1-1.43-.43c-.217-.146-.583-.071-.979-.1l.123.858c-.279.172-.549.179-.692-.138a.635.635,0,0,0-.646-.414c-.862.024-1.647-.634-2.545-.285-.682-.547-1.354-.14-2.058-.051a5.918,5.918,0,0,1-1.354-.221,17.032,17.032,0,0,0-2.971-.142,5.331,5.331,0,0,1-2.812-.2.47.47,0,0,0-.264-.07,20.8,20.8,0,0,1-4.474-.246,2.857,2.857,0,0,0-2.232.417.428.428,0,0,1-.392.059c-.531-.367-1.2-.1-1.767-.45a3.3,3.3,0,0,0-1.448-.317c-.5-.037-1.009.056-1.514.064a9.38,9.38,0,0,1-1.5-.041c-1.168-.171-2.352-.016-3.516-.2-1.857.449-3.747.025-5.62.2-1.181.109-2.382-.041-3.573-.026a11.176,11.176,0,0,0-3.134.135.971.971,0,0,1-.409.055,20.016,20.016,0,0,0-3.98.21,4.317,4.317,0,0,1-1.092-.007,10.4,10.4,0,0,0-4.081.27c-.63.106-1.269.156-1.9.236-.361.046-.724.1-1.085.15a4.113,4.113,0,0,1-.812.094,2.633,2.633,0,0,0-1.6.227,1.5,1.5,0,0,1-.676.1,61.144,61.144,0,0,0-6.57.638c-2.456.342-4.909.715-7.36,1.089-.545.083-1.079.226-1.618.336a12.745,12.745,0,0,1-2.3.31,13.977,13.977,0,0,0-2.7.531c-1.657.374-3.315.749-4.967,1.147-.665.16-1.311.4-1.972.576-.886.239-1.779.443-2.663.688-.334.093-.646.257-1.22.49a3.4,3.4,0,0,0,1.7.085c2.212-.373,4.429-.719,6.642-1.091a1.7,1.7,0,0,1,1.434.213c.917-.639,1.841-1.222,3.014-.385.8-1.193,2-1.09,3.307-.991l.6,1.015.042-.016a4.232,4.232,0,0,0-.4.668c-.047.121.047.3.077.447a1.754,1.754,0,0,0,.442-.193c.089-.073.112-.227.164-.346l-.035.04.732.286.046-.754c.367-.482,1.076-.8,1.356-1.5a.626.626,0,0,1,.444-.279c1.2-.154,2.4-.281,3.85-.445-.277.227-.353.341-.438.351-.5.056-1.006.049-1.5.136-.595.106-1.145.309-1.229,1.053a1.826,1.826,0,0,1-.229.486c-.244.538-.025.817.567.867s1.033-.339,1.567-.432l-.048.006.519,0-.047-.008a3.009,3.009,0,0,1,.817-.046,7.159,7.159,0,0,0,2.591-.147c1.178-.164,2.36-.315,3.548-.394a14,14,0,0,0,2.727-.324,3.289,3.289,0,0,1,.818-.013,3.954,3.954,0,0,0,1.1-.013c1.4-.42,2.834-.078,4.235-.29a33.222,33.222,0,0,1,4.259-.181c1.275-.028,2.551-.089,3.825-.137.092,0,.19-.047.271-.023a11.7,11.7,0,0,0,3.272.06,2.206,2.206,0,0,1,.547.025,1.846,1.846,0,0,0,1.7-.1.391.391,0,0,1,.269-.042c1.165.209,2.361-.075,3.522.22a.841.841,0,0,0,.526,0,4.872,4.872,0,0,1,1.759-.2,16.284,16.284,0,0,0,2.032.078c.641-.143,1.274.181,1.887.174,1.051-.013,2.091.137,3.138.1.815-.027,1.631-.089,2.446-.141.33-.021.689-.037.882.259a.8.8,0,0,0,.972.267,16.083,16.083,0,0,1,5.025-.078,21.29,21.29,0,0,0,2.74.1,14.231,14.231,0,0,1,2.969.291c.576.094,1.177.028,1.753.118s1.133.306,1.707.424a1.017,1.017,0,0,0,.509-.144.434.434,0,0,1,.6.138c.166.229.378.185.6.05a1.629,1.629,0,0,1,.6-.276,13.18,13.18,0,0,1,4.105.845l-.229-.072.218.076c.086-.1.169-.279.259-.282a3.349,3.349,0,0,1,1.217.052,24.66,24.66,0,0,0,3.892.664c1.172-.361,2.331.384,3.508.047a.51.51,0,0,1,.4.053,1.024,1.024,0,0,0,1.179.074c.383.288.088.479.075.692.063.02.162.079.189.056a1.928,1.928,0,0,1,1.8-.4,8.507,8.507,0,0,1,2.646.532.5.5,0,0,0,.377-.015c.633-.255,1.238.148,1.86.057.38.392.864.161,1.3.193.544.039,1.1-.1,1.565.34a.442.442,0,0,0,.381.086c.672-.282,1.254.114,1.877.2.855.123,1.716.2,2.574.3a1.622,1.622,0,0,1,.646.118,1.128,1.128,0,0,0,.9.181,3.119,3.119,0,0,1,.548-.044c.618-.025,1.02.613,1.761.44a3.065,3.065,0,0,1,1.857.3,10.666,10.666,0,0,0,3.3.6,6.087,6.087,0,0,1,1.748.308,24.635,24.635,0,0,0,3.163.809.765.765,0,0,0,.271.049,12.819,12.819,0,0,1,4.08.938,5.519,5.519,0,0,0,1.075.088l.186.614a5.3,5.3,0,0,1,1.975-.228,8.156,8.156,0,0,0,1.878.369c1.37-.062,2.52.6,3.771.916a24.492,24.492,0,0,0,5.892,1.15,1.912,1.912,0,0,1,1.542,2.917,8.051,8.051,0,0,1-.585.856,1.852,1.852,0,0,1-1.4-.051,22.232,22.232,0,0,0-4.669-1.135c-1.45-.2-2.876-.573-4.313-.865-2.2-.447-4.414-.861-6.609-1.344-1.521-.335-3.022-.763-4.533-1.148-.172-.044-.4-.167-.513-.1-.659.368-1.236.05-1.838-.15a1.73,1.73,0,0,0-.669-.139,3.792,3.792,0,0,1-1.706-.418c-.547-.2-1.126-.311-1.857-.505-.619.337-1.439.073-2.251.044l-1.086-.933-.617.615a1.213,1.213,0,0,1-.352-.138c-.295-.241-.57-.472-.979-.215a.4.4,0,0,1-.6-.125c-.3-.553-.713-.5-1.162-.263a2.727,2.727,0,0,1-1.609.188c-.485-.042-.781-.223-.807-.6a10.77,10.77,0,0,1-1.508-.517c-.576-.3-.555-.33-1.716-.3a1.128,1.128,0,0,1-.626-.207,3.084,3.084,0,0,0-2.152-.507l.254.783c-.38.134-.76.206-.865-.29a.68.68,0,0,0-.806-.576,2.474,2.474,0,0,1-1.33-.207.857.857,0,0,0-1.184.3c-.067.1-.226.135-.392.23a4.634,4.634,0,0,0-.594-.51c-.432-.263-.642-.2-1.22.3-.154-.2-.266-.47-.465-.578a2.223,2.223,0,0,0-.8-.138,4.145,4.145,0,0,1-1.086-.1,2.105,2.105,0,0,0-2.161.454Zm12.412-10.478.247.042-.241-.054a1.4,1.4,0,0,0,0,.264c.008.048.061.089.094.133a.959.959,0,0,0-.018-.132C7291.065,3755.012,7291.033,3754.929,7291.006,3754.844Zm-95.379,5.793-.145.472c.29.117.535.251.684-.141l-.545-.335a3.415,3.415,0,0,0-.39-.014c-.131.009-.3-.169-.424.087Zm45.813,3.369a8.316,8.316,0,0,0-.857-.3c-.07-.018-.182.135-.275.208.085.09.175.26.251.253a7.711,7.711,0,0,0,.882-.167l1.152-.378C7241.743,3763.28,7241.712,3763.293,7241.44,3764.007Zm-44.1-2.4a2.751,2.751,0,0,0,1.683-.025l.149-1.123c-.3-.051-.643-.008-.818-.157-.536-.452-.877-.139-1.28.241.348.2.938-.189,1.071.434C7198.033,3761.38,7197.385,3761.019,7197.341,3761.6Zm82.083-7.554c-.06.455.176.81.441.788a3.816,3.816,0,0,1,1.385.078c.035.01.147-.119.155-.19a.566.566,0,0,0-.062-.372.549.549,0,0,0-.348-.157C7280.474,3754.137,7279.95,3754.1,7279.424,3754.051Zm6.428-1.645c.548.032,1.093.54,1.625-.066C7286.922,3752.414,7286.407,3751.761,7285.852,3752.406Zm17.031,6.7c-.04.835.43.929,1.046,1l-.117-.841Zm-60.583,1.688c.083.393.159.7.578.625a.985.985,0,0,0,.84-.625Zm51.36,3.727c.055.2.051.315.1.361.1.084.253.208.335.178.38-.139.848.012,1.248-.3C7294.8,3764.307,7294.271,3764.514,7293.66,3764.521Zm-57.293-4.1c-.031.187-.116.369-.062.43a.766.766,0,0,0,1.075.045.39.39,0,0,0-.062-.328C7237.018,3760.493,7236.706,3760.466,7236.367,3760.419Zm15.486.931a1.372,1.372,0,0,0-.884-.5c-.063-.01-.2.083-.2.115.014.123.059.335.119.344C7251.182,3761.352,7251.461,3761.627,7251.854,3761.35Zm16.6.742c.547.431.6.455.882.278a.27.27,0,0,0,.091-.232C7269.365,3761.822,7269.117,3761.813,7268.456,3762.092Zm11.823.766c.309.446.513.728.949.524.027-.012.048-.09.036-.124C7281.1,3762.8,7280.736,3762.939,7280.279,3762.858Zm-30.8.755c.2.123.307.237.4.232.217-.01.462-.065.468-.349,0-.2-.143-.348-.343-.274A2.6,2.6,0,0,0,7249.48,3763.613Zm35.146-8.953a3.466,3.466,0,0,0-.513.481c-.045.064.037.248.1.349a.248.248,0,0,0,.239.042,2.3,2.3,0,0,0,.4-.513C7284.884,3754.969,7284.74,3754.828,7284.626,3754.659Zm2.5,9.538c.451,0,.584.015.713,0,.2-.028.377-.148.28-.349a.5.5,0,0,0-.435-.178C7287.557,3763.693,7287.454,3763.877,7287.131,3764.2Zm27.467-8.317c.472.293.714.249.9-.094.021-.037.033-.112.014-.129-.062-.055-.163-.146-.211-.127C7315.076,3755.62,7314.864,3755.743,7314.6,3755.88Zm-16.152,9.3c-.2.158-.374.232-.438.361-.076.15.241.439.429.37a.519.519,0,0,0,.289-.347C7298.738,3765.465,7298.566,3765.339,7298.445,3765.183Zm-23.1-11.133c.679.227.679.227.974-.02A1.484,1.484,0,0,0,7275.347,3754.05Zm-44.793,7.22c.031-.03.077-.053.089-.089.064-.187.065-.367-.149-.453-.065-.027-.161.022-.243.037a1.682,1.682,0,0,0,.088.371C7230.371,3761.2,7230.481,3761.228,7230.554,3761.27Zm30.593.23c.007.052,0,.1.021.133a.449.449,0,0,0,.586.144c.029-.013.051-.113.05-.113-.188-.084-.379-.165-.574-.236C7261.213,3761.421,7261.172,3761.477,7261.146,3761.5Zm40.651,4.093c-.144-.022-.247-.072-.308-.04a.872.872,0,0,0-.238.239c-.011.013.034.1.052.1a.457.457,0,0,0,.233-.045A1.98,1.98,0,0,0,7301.8,3765.592Zm-14.9-10.734a2.242,2.242,0,0,0-.268.32c-.013.021.1.163.144.156a1.813,1.813,0,0,0,.363-.142Zm4.231,9.362c-.041-.008-.1-.036-.12-.019-.118.109-.229.227-.342.343a2.017,2.017,0,0,0,.171.148,4,4,0,0,0,.336-.362C7291.182,3764.315,7291.141,3764.257,7291.125,3764.219Zm16.656-6.27a2.339,2.339,0,0,0-.346.117c-.018.009.02.129.03.2a2.939,2.939,0,0,0,.352-.089A1.214,1.214,0,0,0,7307.781,3757.949Zm11.574-1.375c-.065-.041-.134-.12-.193-.113s-.108.1-.161.155l.26.172C7319.292,3756.717,7319.323,3756.646,7319.355,3756.574Zm-26.289-3.74-.021.078a.976.976,0,0,0,.234.095c.06.008.125-.037.188-.059Zm-40.6,8.34c.346.078.465.112.585.128.034.005.077-.038.115-.059-.042-.055-.08-.155-.123-.157A3.694,3.694,0,0,0,7252.467,3761.174Zm-49.983-.211-.02-.113-.45.054.023.148Zm70.456,1.3c-.066.032-.169.05-.189.1s.033.139.055.21l.271-.137Zm-79.1-.986c-.084.008-.184-.009-.245.032-.04.027-.023.137-.032.211.084-.006.186.014.247-.027C7193.848,3761.464,7193.829,3761.35,7193.837,3761.274Zm65.615-.068h-.21v.106a1.774,1.774,0,0,0,.2-.009A.464.464,0,0,0,7259.452,3761.207Zm36.366,4.025h.118l-.069-.184c-.032.022-.085.04-.092.069S7295.8,3765.192,7295.818,3765.232Zm-38.217-1.655-.225.029c.042.044.083.121.125.123.063,0,.128-.052.192-.082Zm-1.981-2.424-.106.059a.832.832,0,0,0,.164.174c.02.012.1-.068.146-.105Zm29.465,2.6.172-.16c-.032-.025-.071-.076-.1-.071a1.485,1.485,0,0,0-.225.093Zm-22.09-12.9-.1-.179a1.276,1.276,0,0,0-.111.194c-.01.025.029.068.045.1Zm45.1,3.994-.349-.1c-.009.074-.052.171-.02.216a.3.3,0,0,0,.219.108C7307.991,3755.065,7308.03,3754.951,7308.1,3754.841Zm3.545.519-.13-.021a.753.753,0,0,0,.051.2c.013.025.079.022.122.031C7311.673,3755.5,7311.658,3755.429,7311.644,3755.36Zm-77.29,5.548.1-.008-.051-.149c-.027.02-.068.036-.077.062S7234.344,3760.876,7234.354,3760.908Zm23.064-7.765c-.065-.043-.13-.117-.2-.12s-.139.064-.208.1a1.025,1.025,0,0,0,.25.162C7257.3,3753.3,7257.365,3753.194,7257.418,3753.143Zm38.7,5.119.086.075.064-.16c-.037-.007-.083-.029-.107-.015S7296.135,3758.227,7296.122,3758.262Zm-7.413-3.13c-.03.011-.075.015-.088.037s.013.059.022.09c.03-.012.074-.016.089-.039S7288.719,3755.162,7288.709,3755.132Zm13.966,12.671.009.107c.066-.007.135-.012.2-.026a.483.483,0,0,0,0-.1Zm-16.045-4.105c-.034-.013-.072-.042-.1-.034s-.037.055-.055.085l.165.052Zm-38.4-.259c-.036.015-.093.023-.1.048s.017.076.027.115l.149-.076Zm56.829-4.062h-.1l.066.156c.029-.019.079-.034.083-.056S7305.077,3759.413,7305.06,3759.377Zm-.212-4.7c.014-.034.048-.078.037-.1s-.064-.032-.1-.047c-.014.033-.047.077-.036.1S7304.813,3754.663,7304.848,3754.679Zm-36.434-.738c-.012-.024-.019-.073-.041-.082s-.067.014-.1.023l.072.137Zm65.348,6.987.11-.007-.054-.16c-.029.022-.073.039-.084.068S7333.751,3760.895,7333.762,3760.929Zm-7.159-1.7c.019.025.033.063.058.071a.315.315,0,0,0,.112,0,.5.5,0,0,0-.076-.117C7326.687,3759.17,7326.635,3759.208,7326.6,3759.225Zm-31.945-6.014.057-.108-.088-.018Zm12.253,1.282-.008.082.089-.035Zm-7.02,4.205-.094-.052-.01.087Zm2.587-1.361.088-.039-.086-.043Zm-23.421,5.775c-.016-.03-.025-.074-.05-.085s-.068.007-.1.013l.072.139Zm6.15-10.833-.105.051.1.054Zm-2.638,10.516c.006.03,0,.073.021.086a.269.269,0,0,0,.1.024l-.029-.149Zm-16.446-9.344-.093-.061-.018.092Zm29.612,13.575-.037.094c.028.01.072.037.083.028a.13.13,0,0,0,.033-.09C7295.813,3767.047,7295.763,3767.039,7295.735,3767.028Z" transform="translate(-2.549 -48.396)" fill="#0e0e98"/>
    <path id="Path_4415" data-name="Path 4415" d="M7278.594,3765.323a3.9,3.9,0,0,0-2.964-.932c-.629.035-1.262,0-1.893-.015a.774.774,0,0,0-.668.389l.01,0a2.908,2.908,0,0,0-2.6-.992c-.179.2-.388.431-.584.649a.92.92,0,0,1-.291,0,11.3,11.3,0,0,0-1.646-.65,6.08,6.08,0,0,0-1.89-.122,5.736,5.736,0,0,1-2.287-.227,2.242,2.242,0,0,0-1.326-.029c-.519.145-1.068.173-1.6.281a.705.705,0,0,0-.456.251c-.238.461-.64.468-1.057.457-.82-.021-1.643-.031-2.46-.092-.19-.014-.365-.213-.548-.327l-.013,0c-.1-.136-.172-.349-.3-.394a1.494,1.494,0,0,0-1.757.333c-.073.082-.253.069-.41.106l-.176-.6c-.108.015-.227,0-.272.044-.428.457-.769,1.042-1.518.989-.349-.425.2-.65.193-1.023-.122-.023-.281-.108-.365-.06-.224.125-.534.272-.6.475-.178.579-.628.632-1.069.624-.543-.011-1.082-.141-1.625-.2a1.606,1.606,0,0,1-1.2-.724l-.271.4c-.217-.189-.413-.481-.675-.556a2.833,2.833,0,0,0-.92.078,2.2,2.2,0,0,1-.4-.036c-.007-.083-.013-.164-.02-.245l.014.256-1.161-.2c-.21.478-.425.967-.674,1.537a1.129,1.129,0,0,1-1.088.129,1.846,1.846,0,0,0-1.556-.232.635.635,0,0,1-.506-.148,8.021,8.021,0,0,1-.942-.989c-.084-.106-.013-.334-.013-.554l2.735-.158c.113-.333-.071-.337-.26-.385-.4-.1-.783-.233-1.231-.37a4.652,4.652,0,0,1-1.074.343c-1.448.122-2.9.187-4.353.268a.852.852,0,0,1-.4-.043,5.716,5.716,0,0,0-3.244-.164,7.072,7.072,0,0,1-1.642-.015,8.118,8.118,0,0,0-1.222-.021c-.453.009-.914.153-1.342-.125-.072-.046-.2-.091-.26-.059-.849.448-1.8.047-2.673.341a3.7,3.7,0,0,1-1.085.107c-1.09.021-2.181,0-3.269.042-1.238.049-2.475.142-3.711.232-.595.043-1.187.13-1.781.188-.546.053-1.092.092-1.638.138-1.141.1-2.283.179-3.422.29-1.415.138-2.83.284-4.242.454-1.32.159-2.636.358-3.954.533q-1.02.135-2.042.246-3.63.394-7.26.78a75.105,75.105,0,0,1-9.358.357,4.005,4.005,0,0,1-2.454-.755,1.843,1.843,0,0,1-.835-1.769,7.005,7.005,0,0,0,.025-1.642,1.244,1.244,0,0,1,.575-1.3c.6-.405,1.243-.76,1.912-1.164-.117-.481-.264-.959-.349-1.447-.149-.869.113-1.333.956-1.534,1.379-.33,2.771-.6,4.16-.885,2.333-.482,4.667-.953,7-1.44,1.662-.347,3.318-.726,4.983-1.057a9.9,9.9,0,0,1,1.772-.184c1.189-.019,2.333-.4,3.523-.4a1.186,1.186,0,0,0,.525-.12,3.762,3.762,0,0,1,2.271-.375,1.718,1.718,0,0,0,.674-.045c1.768-.5,3.631-.388,5.407-.852a10.408,10.408,0,0,1,1.636-.123c1.916-.18,3.832-.371,5.749-.557a1.325,1.325,0,0,1,.273-.025,12.7,12.7,0,0,0,3.554-.3,3.79,3.79,0,0,1,1.5-.061,1.763,1.763,0,0,0,.945-.083c.6-.214,1.175.059,1.757,0a5.166,5.166,0,0,1,1.623-.156,4.684,4.684,0,0,0,1.987-.129,22.219,22.219,0,0,1,2.6-.109c.319-.012.637-.069.955-.082,1-.04,2.011-.074,3.017-.1a.6.6,0,0,1,.38.132,1.091,1.091,0,0,0,1.164.12,9.212,9.212,0,0,1,3.519-.349,11.464,11.464,0,0,0,3-.11,3.6,3.6,0,0,1,1.888.136,7.3,7.3,0,0,0,1.875.207.3.3,0,0,0,.228-.112c.32-.482.793-.389,1.245-.329.771.1,1.537.237,2.308.338a3.418,3.418,0,0,0,.94.029,9.342,9.342,0,0,1,1.045-.29c1.51-.037,3.021-.031,4.531-.015a4.554,4.554,0,0,1,.789.193,3.532,3.532,0,0,0,1.068.159,13.855,13.855,0,0,1,3,.063,6.106,6.106,0,0,0,1.642-.056,5.385,5.385,0,0,1,2.308.1,14.113,14.113,0,0,0,1.48.244.608.608,0,0,0,.39-.067,3.609,3.609,0,0,1,2.746-.2c.044.006.088.052.126.047a3.294,3.294,0,0,1,2.134.01,7.373,7.373,0,0,0,2.026.254,11.428,11.428,0,0,1,2.844.417,1.383,1.383,0,0,0,1.292-.322l-.01,0a1.515,1.515,0,0,0,1.849.473,1.647,1.647,0,0,1,.669.022,3.1,3.1,0,0,0,1.347-.133,1.417,1.417,0,0,1,1.764.292.71.71,0,0,0,.5.158c.54-.007,1.078-.052,1.761-.09.217.33.689.4,1.221.38.441-.013.909-.173,1.328.148a.483.483,0,0,0,.4.051,3.374,3.374,0,0,1,2.278.252,1.149,1.149,0,0,0,1.158-.125.816.816,0,0,1,.916-.023,2.264,2.264,0,0,0,2.058.243,5.836,5.836,0,0,1,2.514.291,1.177,1.177,0,0,0,.764.139,12.738,12.738,0,0,1,2.576.235c1.3.214,2.549.772,3.905.63a.711.711,0,0,1,.407.036c.785.464,1.7.167,2.521.461a2.387,2.387,0,0,0,.812.008,2.215,2.215,0,0,1,1.807.468c.058.059.178.135.229.113,1.029-.456,1.879.681,2.892.32a3.045,3.045,0,0,0,1.722.356c.924.465,2.007,0,2.934.5.13.071.353-.038.533-.042a3.291,3.291,0,0,1,.959.016,23.993,23.993,0,0,0,2.7.4c1.253.21,2.5.467,3.744.72a8.738,8.738,0,0,1,.914.288c.172.056.361.192.514.159,1.141-.245,2.136.472,3.232.46.777-.008,1.555-.058,2.332-.071a2.41,2.41,0,0,1,1.3.374,1.309,1.309,0,0,1,.748,1.45,7.712,7.712,0,0,1-.937,2.55c-.779.422-1.487-.328-2.2.063.924,2.251.9,2.519-.371,4.2a10.692,10.692,0,0,1-2.852-.107c-1.539-.261-3.088-.461-4.633-.687a2.853,2.853,0,0,1-.41-.051c-1.983-.59-4.069-.67-6.062-1.225-.35-.1-.726-.1-1.086-.166a2.768,2.768,0,0,1-.92-.235,3.658,3.658,0,0,0-1.847-.48,45.981,45.981,0,0,1-4.743-.717,4.515,4.515,0,0,0-.808-.155c-.794.049-1.026-.436-1.124-1.082a1.638,1.638,0,0,0,.38-.046c.055-.019.076-.131.113-.2-.1-.024-.253-.1-.293-.06a1.047,1.047,0,0,0-.164.343l-.556.7-.394-.614a3.3,3.3,0,0,0-1.851.174.762.762,0,0,1-.625.037c-.139-.089-.132-.387-.215-.583-.03-.072-.136-.112-.276-.221l-.5.653c-1.673-.285-3.511.055-5.1-1.078a2.387,2.387,0,0,1-1.888.218c-.4-.086-.8-.181-1.2-.275.212-.093.417-.182.629-.278.084.006.162.022.24.027.017,0,.035-.037.053-.056l-.323.05a1.514,1.514,0,0,0-.366-.326c-.218-.094-.329.057-.266.329.02.083.038.166.057.249a3.043,3.043,0,0,1-.677.06c-.275-.036-.507-.112-.377-.533.063-.2-.121-.5-.245-.729-.166-.3-.373-.227-.678.293-.68-.1-1.4-.2-2.11-.307-.087-.014-.216-.04-.247-.1-.385-.746-1.01-.488-1.64-.5a10.542,10.542,0,0,1-2.169-.519l-.806.39a8.231,8.231,0,0,1-1.111-.417,3.485,3.485,0,0,0-3.147-.189.609.609,0,0,1-.747-.162c-.253-.288-.55.34-.831-.062a3,3,0,0,0-.694-.524,1.853,1.853,0,0,1-1.364.525c-.039,0-.084.3-.126.466l.035-.037-.75.538v-1.243c-.317-.026-.583-.045-.849-.069-.225-.02-.526.04-.662-.082-.723-.648-1.452-.34-2.175-.067-.279.105-.558.192-.782.008a2.381,2.381,0,0,0-1.422-.412,2.882,2.882,0,0,1-1.43-.43c-.217-.146-.583-.071-.979-.1l.123.858c-.279.172-.549.179-.692-.138a.635.635,0,0,0-.646-.414c-.862.024-1.647-.634-2.545-.285-.682-.547-1.354-.14-2.058-.051a5.918,5.918,0,0,1-1.354-.221,17.032,17.032,0,0,0-2.971-.142,5.331,5.331,0,0,1-2.812-.2.47.47,0,0,0-.264-.07,20.8,20.8,0,0,1-4.474-.246,2.857,2.857,0,0,0-2.232.417.428.428,0,0,1-.392.059c-.531-.367-1.2-.1-1.767-.45a3.3,3.3,0,0,0-1.448-.317c-.5-.037-1.009.056-1.514.064a9.38,9.38,0,0,1-1.5-.041c-1.168-.171-2.352-.016-3.516-.2-1.857.449-3.747.025-5.62.2-1.181.109-2.382-.041-3.573-.026a11.176,11.176,0,0,0-3.134.135.971.971,0,0,1-.409.055,20.016,20.016,0,0,0-3.98.21,4.317,4.317,0,0,1-1.092-.007,10.4,10.4,0,0,0-4.081.27c-.63.106-1.269.156-1.9.236-.361.046-.724.1-1.085.15a4.113,4.113,0,0,1-.812.094,2.633,2.633,0,0,0-1.6.227,1.5,1.5,0,0,1-.676.1,61.144,61.144,0,0,0-6.57.638c-2.456.342-4.909.715-7.36,1.089-.545.083-1.079.226-1.618.336a12.745,12.745,0,0,1-2.3.31,13.977,13.977,0,0,0-2.7.531c-1.657.374-3.315.749-4.967,1.147-.665.16-1.311.4-1.972.576-.886.239-1.779.443-2.663.688-.334.093-.646.257-1.22.49a3.4,3.4,0,0,0,1.7.085c2.212-.373,4.429-.719,6.642-1.091a1.7,1.7,0,0,1,1.434.213c.917-.639,1.841-1.222,3.014-.385.8-1.193,2-1.09,3.307-.991l.6,1.015.042-.016a4.232,4.232,0,0,0-.4.668c-.047.121.047.3.077.447a1.754,1.754,0,0,0,.442-.193c.089-.073.112-.227.164-.346l-.035.04.732.286.046-.754c.367-.482,1.076-.8,1.356-1.5a.626.626,0,0,1,.444-.279c1.2-.154,2.4-.281,3.85-.445-.277.227-.353.341-.438.351-.5.056-1.006.049-1.5.136-.595.106-1.145.309-1.229,1.053a1.826,1.826,0,0,1-.229.486c-.244.538-.025.817.567.867s1.033-.339,1.567-.432l-.048.006.519,0-.047-.008a3.009,3.009,0,0,1,.817-.046,7.159,7.159,0,0,0,2.591-.147c1.178-.164,2.36-.315,3.548-.394a14,14,0,0,0,2.727-.324,3.289,3.289,0,0,1,.818-.013,3.954,3.954,0,0,0,1.1-.013c1.4-.42,2.834-.078,4.235-.29a33.222,33.222,0,0,1,4.259-.181c1.275-.028,2.551-.089,3.825-.137.092,0,.19-.047.271-.023a11.7,11.7,0,0,0,3.272.06,2.206,2.206,0,0,1,.547.025,1.846,1.846,0,0,0,1.7-.1.391.391,0,0,1,.269-.042c1.165.209,2.361-.075,3.522.22a.841.841,0,0,0,.526,0,4.872,4.872,0,0,1,1.759-.2,16.284,16.284,0,0,0,2.032.078c.641-.143,1.274.181,1.887.174,1.051-.013,2.091.137,3.138.1.815-.027,1.631-.089,2.446-.141.33-.021.689-.037.882.259a.8.8,0,0,0,.972.267,16.083,16.083,0,0,1,5.025-.078,21.29,21.29,0,0,0,2.74.1,14.231,14.231,0,0,1,2.969.291c.576.094,1.177.028,1.753.118s1.133.306,1.707.424a1.017,1.017,0,0,0,.509-.144.434.434,0,0,1,.6.138c.166.229.378.185.6.05a1.629,1.629,0,0,1,.6-.276,13.18,13.18,0,0,1,4.105.845l-.229-.072.218.076c.086-.1.169-.279.259-.282a3.349,3.349,0,0,1,1.217.052,24.66,24.66,0,0,0,3.892.664c1.172-.361,2.331.384,3.508.047a.51.51,0,0,1,.4.053,1.024,1.024,0,0,0,1.179.074c.383.288.088.479.075.692.063.02.162.079.189.056a1.928,1.928,0,0,1,1.8-.4,8.507,8.507,0,0,1,2.646.532.5.5,0,0,0,.377-.015c.633-.255,1.238.148,1.86.057.38.392.864.161,1.3.193.544.039,1.1-.1,1.565.34a.442.442,0,0,0,.381.086c.672-.282,1.254.114,1.877.2.855.123,1.716.2,2.574.3a1.622,1.622,0,0,1,.646.118,1.128,1.128,0,0,0,.9.181,3.119,3.119,0,0,1,.548-.044c.618-.025,1.02.613,1.761.44a3.065,3.065,0,0,1,1.857.3,10.666,10.666,0,0,0,3.3.6,6.087,6.087,0,0,1,1.748.308,24.635,24.635,0,0,0,3.163.809.765.765,0,0,0,.271.049,12.819,12.819,0,0,1,4.08.938,5.519,5.519,0,0,0,1.075.088l.186.614a5.3,5.3,0,0,1,1.975-.228,8.156,8.156,0,0,0,1.878.369c1.37-.062,2.52.6,3.771.916a24.492,24.492,0,0,0,5.892,1.15,1.912,1.912,0,0,1,1.542,2.917,8.051,8.051,0,0,1-.585.856,1.852,1.852,0,0,1-1.4-.051,22.232,22.232,0,0,0-4.669-1.135c-1.45-.2-2.876-.573-4.313-.865-2.2-.447-4.414-.861-6.609-1.344-1.521-.335-3.022-.763-4.533-1.148-.172-.044-.4-.167-.513-.1-.659.368-1.236.05-1.838-.15a1.73,1.73,0,0,0-.669-.139,3.792,3.792,0,0,1-1.706-.418c-.547-.2-1.126-.311-1.857-.505-.619.337-1.439.073-2.251.044l-1.086-.933-.617.615a1.213,1.213,0,0,1-.352-.138c-.295-.241-.57-.472-.979-.215a.4.4,0,0,1-.6-.125c-.3-.553-.713-.5-1.162-.263a2.727,2.727,0,0,1-1.609.188c-.485-.042-.781-.223-.807-.6a10.77,10.77,0,0,1-1.508-.517c-.576-.3-.555-.33-1.716-.3a1.128,1.128,0,0,1-.626-.207,3.084,3.084,0,0,0-2.152-.507l.254.783c-.38.134-.76.206-.865-.29a.68.68,0,0,0-.806-.576,2.474,2.474,0,0,1-1.33-.207.857.857,0,0,0-1.184.3c-.067.1-.226.135-.392.23a4.634,4.634,0,0,0-.594-.51c-.432-.263-.642-.2-1.22.3-.154-.2-.266-.47-.465-.578a2.223,2.223,0,0,0-.8-.138,4.145,4.145,0,0,1-1.086-.1,2.105,2.105,0,0,0-2.161.454Zm12.412-10.478.247.042-.241-.054a1.4,1.4,0,0,0,0,.264c.008.048.061.089.094.133a.959.959,0,0,0-.018-.132C7291.065,3755.012,7291.033,3754.929,7291.006,3754.844Zm-95.379,5.793-.145.472c.29.117.535.251.684-.141l-.545-.335a3.415,3.415,0,0,0-.39-.014c-.131.009-.3-.169-.424.087Zm45.813,3.369a8.316,8.316,0,0,0-.857-.3c-.07-.018-.182.135-.275.208.085.09.175.26.251.253a7.711,7.711,0,0,0,.882-.167l1.152-.378C7241.743,3763.28,7241.712,3763.293,7241.44,3764.007Zm-44.1-2.4a2.751,2.751,0,0,0,1.683-.025l.149-1.123c-.3-.051-.643-.008-.818-.157-.536-.452-.877-.139-1.28.241.348.2.938-.189,1.071.434C7198.033,3761.38,7197.385,3761.019,7197.341,3761.6Zm82.083-7.554c-.06.455.176.81.441.788a3.816,3.816,0,0,1,1.385.078c.035.01.147-.119.155-.19a.566.566,0,0,0-.062-.372.549.549,0,0,0-.348-.157C7280.474,3754.137,7279.95,3754.1,7279.424,3754.051Zm6.428-1.645c.548.032,1.093.54,1.625-.066C7286.922,3752.414,7286.407,3751.761,7285.852,3752.406Zm17.031,6.7c-.04.835.43.929,1.046,1l-.117-.841Zm-60.583,1.688c.083.393.159.7.578.625a.985.985,0,0,0,.84-.625Zm51.36,3.727c.055.2.051.315.1.361.1.084.253.208.335.178.38-.139.848.012,1.248-.3C7294.8,3764.307,7294.271,3764.514,7293.66,3764.521Zm-57.293-4.1c-.031.187-.116.369-.062.43a.766.766,0,0,0,1.075.045.39.39,0,0,0-.062-.328C7237.018,3760.493,7236.706,3760.466,7236.367,3760.419Zm15.486.931a1.372,1.372,0,0,0-.884-.5c-.063-.01-.2.083-.2.115.014.123.059.335.119.344C7251.182,3761.352,7251.461,3761.627,7251.854,3761.35Zm16.6.742c.547.431.6.455.882.278a.27.27,0,0,0,.091-.232C7269.365,3761.822,7269.117,3761.813,7268.456,3762.092Zm11.823.766c.309.446.513.728.949.524.027-.012.048-.09.036-.124C7281.1,3762.8,7280.736,3762.939,7280.279,3762.858Zm-30.8.755c.2.123.307.237.4.232.217-.01.462-.065.468-.349,0-.2-.143-.348-.343-.274A2.6,2.6,0,0,0,7249.48,3763.613Zm35.146-8.953a3.466,3.466,0,0,0-.513.481c-.045.064.037.248.1.349a.248.248,0,0,0,.239.042,2.3,2.3,0,0,0,.4-.513C7284.884,3754.969,7284.74,3754.828,7284.626,3754.659Zm2.5,9.538c.451,0,.584.015.713,0,.2-.028.377-.148.28-.349a.5.5,0,0,0-.435-.178C7287.557,3763.693,7287.454,3763.877,7287.131,3764.2Zm27.467-8.317c.472.293.714.249.9-.094.021-.037.033-.112.014-.129-.062-.055-.163-.146-.211-.127C7315.076,3755.62,7314.864,3755.743,7314.6,3755.88Zm-16.152,9.3c-.2.158-.374.232-.438.361-.076.15.241.439.429.37a.519.519,0,0,0,.289-.347C7298.738,3765.465,7298.566,3765.339,7298.445,3765.183Zm-23.1-11.133c.679.227.679.227.974-.02A1.484,1.484,0,0,0,7275.347,3754.05Zm-44.793,7.22c.031-.03.077-.053.089-.089.064-.187.065-.367-.149-.453-.065-.027-.161.022-.243.037a1.682,1.682,0,0,0,.088.371C7230.371,3761.2,7230.481,3761.228,7230.554,3761.27Zm30.593.23c.007.052,0,.1.021.133a.449.449,0,0,0,.586.144c.029-.013.051-.113.05-.113-.188-.084-.379-.165-.574-.236C7261.213,3761.421,7261.172,3761.477,7261.146,3761.5Zm40.651,4.093c-.144-.022-.247-.072-.308-.04a.872.872,0,0,0-.238.239c-.011.013.034.1.052.1a.457.457,0,0,0,.233-.045A1.98,1.98,0,0,0,7301.8,3765.592Zm-14.9-10.734a2.242,2.242,0,0,0-.268.32c-.013.021.1.163.144.156a1.813,1.813,0,0,0,.363-.142Zm4.231,9.362c-.041-.008-.1-.036-.12-.019-.118.109-.229.227-.342.343a2.017,2.017,0,0,0,.171.148,4,4,0,0,0,.336-.362C7291.182,3764.315,7291.141,3764.257,7291.125,3764.219Zm16.656-6.27a2.339,2.339,0,0,0-.346.117c-.018.009.02.129.03.2a2.939,2.939,0,0,0,.352-.089A1.214,1.214,0,0,0,7307.781,3757.949Zm11.574-1.375c-.065-.041-.134-.12-.193-.113s-.108.1-.161.155l.26.172C7319.292,3756.717,7319.323,3756.646,7319.355,3756.574Zm-26.289-3.74-.021.078a.976.976,0,0,0,.234.095c.06.008.125-.037.188-.059Zm-40.6,8.34c.346.078.465.112.585.128.034.005.077-.038.115-.059-.042-.055-.08-.155-.123-.157A3.694,3.694,0,0,0,7252.467,3761.174Zm-49.983-.211-.02-.113-.45.054.023.148Zm70.456,1.3c-.066.032-.169.05-.189.1s.033.139.055.21l.271-.137Zm-79.1-.986c-.084.008-.184-.009-.245.032-.04.027-.023.137-.032.211.084-.006.186.014.247-.027C7193.848,3761.464,7193.829,3761.35,7193.837,3761.274Zm65.615-.068h-.21v.106a1.774,1.774,0,0,0,.2-.009A.464.464,0,0,0,7259.452,3761.207Zm36.366,4.025h.118l-.069-.184c-.032.022-.085.04-.092.069S7295.8,3765.192,7295.818,3765.232Zm-38.217-1.655-.225.029c.042.044.083.121.125.123.063,0,.128-.052.192-.082Zm-1.981-2.424-.106.059a.832.832,0,0,0,.164.174c.02.012.1-.068.146-.105Zm29.465,2.6.172-.16c-.032-.025-.071-.076-.1-.071a1.485,1.485,0,0,0-.225.093Zm-22.09-12.9-.1-.179a1.276,1.276,0,0,0-.111.194c-.01.025.029.068.045.1Zm45.1,3.994-.349-.1c-.009.074-.052.171-.02.216a.3.3,0,0,0,.219.108C7307.991,3755.065,7308.03,3754.951,7308.1,3754.841Zm3.545.519-.13-.021a.753.753,0,0,0,.051.2c.013.025.079.022.122.031C7311.673,3755.5,7311.658,3755.429,7311.644,3755.36Zm-77.29,5.548.1-.008-.051-.149c-.027.02-.068.036-.077.062S7234.344,3760.876,7234.354,3760.908Zm23.064-7.765c-.065-.043-.13-.117-.2-.12s-.139.064-.208.1a1.025,1.025,0,0,0,.25.162C7257.3,3753.3,7257.365,3753.194,7257.418,3753.143Zm38.7,5.119.086.075.064-.16c-.037-.007-.083-.029-.107-.015S7296.135,3758.227,7296.122,3758.262Zm-7.413-3.13c-.03.011-.075.015-.088.037s.013.059.022.09c.03-.012.074-.016.089-.039S7288.719,3755.162,7288.709,3755.132Zm13.966,12.671.009.107c.066-.007.135-.012.2-.026a.483.483,0,0,0,0-.1Zm-16.045-4.105c-.034-.013-.072-.042-.1-.034s-.037.055-.055.085l.165.052Zm-38.4-.259c-.036.015-.093.023-.1.048s.017.076.027.115l.149-.076Zm56.829-4.062h-.1l.066.156c.029-.019.079-.034.083-.056S7305.077,3759.413,7305.06,3759.377Zm-.212-4.7c.014-.034.048-.078.037-.1s-.064-.032-.1-.047c-.014.033-.047.077-.036.1S7304.813,3754.663,7304.848,3754.679Zm-36.434-.738c-.012-.024-.019-.073-.041-.082s-.067.014-.1.023l.072.137Zm65.348,6.987.11-.007-.054-.16c-.029.022-.073.039-.084.068S7333.751,3760.895,7333.762,3760.929Zm-7.159-1.7c.019.025.033.063.058.071a.315.315,0,0,0,.112,0,.5.5,0,0,0-.076-.117C7326.687,3759.17,7326.635,3759.208,7326.6,3759.225Zm-31.945-6.014.057-.108-.088-.018Zm12.253,1.282-.008.082.089-.035Zm-7.02,4.205-.094-.052-.01.087Zm2.587-1.361.088-.039-.086-.043Zm-23.421,5.775c-.016-.03-.025-.074-.05-.085s-.068.007-.1.013l.072.139Zm6.15-10.833-.105.051.1.054Zm-2.638,10.516c.006.03,0,.073.021.086a.269.269,0,0,0,.1.024l-.029-.149Zm-16.446-9.344-.093-.061-.018.092Zm29.612,13.575-.037.094c.028.01.072.037.083.028a.13.13,0,0,0,.033-.09C7295.813,3767.047,7295.763,3767.039,7295.735,3767.028Z" transform="translate(-2.549 -48.396)" fill="#0e0e98"/>
    <path id="Path_26" data-name="Path 26" d="M7186.892,3683.386a16.723,16.723,0,0,0-3.831.257c-1.539.263-3.087.472-4.632.684a2.623,2.623,0,0,1-2.047-.322,7.222,7.222,0,0,1-.234-3.458,1.11,1.11,0,0,1,.74-.921c1.694-.576,3.246-1.516,5-1.951.7-.175,1.333-.574,2.071-.7a14.333,14.333,0,0,0,3.018-.871c.712-.293,1.527-.342,2.233-.646,1.353-.583,2.87-.568,4.194-1.222,2.637-.373,5.163-1.276,7.818-1.579a34.31,34.31,0,0,0,3.769-.753c2.19-.5,4.42-.755,6.637-1.093,1.4-.213,2.8-.492,4.2-.716.632-.1,1.274-.134,1.911-.212,1.73-.212,3.454-.52,5.191-.63q3.765-.236,7.495-.75c.765-.106,1.556,0,2.333-.032.545-.022,1.088-.113,1.632-.174a5.23,5.23,0,0,1,.677-.069,9.184,9.184,0,0,0,2.028-.252,18.844,18.844,0,0,1,3.15-.161c.225-.006.455.089.677.072,1.279-.094,2.555-.212,3.834-.311.225-.017.454.027.681.03a5.094,5.094,0,0,0,1.614-.151c.478-.146,1.1.214,1.593.085a8.142,8.142,0,0,1,3.126-.125,3.6,3.6,0,0,0,.684-.056,7.213,7.213,0,0,1,2.994-.05,9.581,9.581,0,0,1,2.444-.184,37.283,37.283,0,0,1,4.792.06c2.188.12,4.389.083,6.577.169,1.88.074,3.759.079,5.633.059a38.357,38.357,0,0,0,4.642.076,2.588,2.588,0,0,1,.54.088,7.4,7.4,0,0,0,2.434.156,1.965,1.965,0,0,1,.685.033c.9.128,1.8.27,2.7.4a1.671,1.671,0,0,0,.409.021,35.19,35.19,0,0,1,6.841.289c.957.092,1.919.145,2.878.211a2.215,2.215,0,0,1,.681.028,5.537,5.537,0,0,0,1.607.155,7.759,7.759,0,0,0,1.631.058,3.864,3.864,0,0,1,1.5.13,15.98,15.98,0,0,0,3.255.333c.318.042.633.1.952.134.359.032.721.038,1.081.053.319.013.641,0,.955.038,1.5.194,3,.413,4.5.6.861.108,1.729.166,2.591.265a3.57,3.57,0,0,1,.937.2,1.839,1.839,0,0,1,1.26,1.8,12.361,12.361,0,0,1-.269,1.757,19.119,19.119,0,0,1-1.754.908,3.035,3.035,0,0,1-1.08.1c-1.147,0-2.295-.024-3.441-.006-.457.007-.911.13-1.367.152a2.784,2.784,0,0,1-2.175-.663,3.921,3.921,0,0,0-.479-.33c-.169.069-.38.093-.49.211a1.052,1.052,0,0,1-.989.352c-1.642-.242-3.3-.048-4.944-.169-1.142-.084-2.286-.174-3.43-.193-1.928-.034-3.858,0-5.786-.024a18.773,18.773,0,0,1-1.913-.155,16.847,16.847,0,0,0-3.639-.255c-.724.071-1.466-.091-2.2-.064-1.1.041-2.192.084-3.294.031-.867-.042-1.741.051-2.612.07a7.864,7.864,0,0,1-.959-.042,4.605,4.605,0,0,0-2.306.032.984.984,0,0,1-.41,0c-1.049-.074-2.1-.169-3.146-.218a4.918,4.918,0,0,0-1.07.129,12.252,12.252,0,0,1-1.331.271c-1.373.091-2.749.141-4.123.194a1.971,1.971,0,0,1-.814-.073,3.235,3.235,0,0,0-2.146-.031,13.7,13.7,0,0,0-2.429.37c-.274.12-.7-.13-1.057-.164-.312-.029-.53.116-.509.532a1.293,1.293,0,0,0,1.123.266,10.163,10.163,0,0,1,3.949.266.84.84,0,0,0,.4-.039,26.127,26.127,0,0,1,6.432-.257,11.778,11.778,0,0,0,1.375.039,38.6,38.6,0,0,1,4.789.037,36.848,36.848,0,0,0,4.257-.011,9.308,9.308,0,0,1,2.595.15,5.663,5.663,0,0,1,1.464.308c.542.3.826-.355,1.288-.19a2.252,2.252,0,0,0,.68.092c.686.02,1.371.025,2.056.036.364.006.728.007,1.091.024.183.008.377.1.542.063a7.5,7.5,0,0,1,2.047.045,18.456,18.456,0,0,0,2.865.058,14.029,14.029,0,0,1,3,.31c.59.056,1.188.029,1.78.055.36.016.719.058,1.078.1a3.406,3.406,0,0,0,.4.072c1.005-.021,2.01-.055,3.016-.081a13.512,13.512,0,0,1,3.138.337,2.89,2.89,0,0,0,1.625-.015,3.3,3.3,0,0,1,1.636-.008c.77.116,1.547.179,2.319.283,1.273.172,2.545.351,3.816.545a1.356,1.356,0,0,1,1.178,1.446,1.675,1.675,0,0,1-1.912,1.814c-1.512-.085-3.021-.221-4.531-.352-1.417-.122-2.833-.267-4.25-.4-.685-.065-1.369-.153-2.056-.192a5.96,5.96,0,0,0-2.576-.059c-.12.045-.275-.013-.41.006-1,.146-1.937-.378-2.971-.221a9.374,9.374,0,0,1-3.017-.018c-1.516-.274-3.025.077-4.527-.133-.546-.077-1.093-.148-1.64-.207a3.006,3.006,0,0,0-1.622.107,1.924,1.924,0,0,1-1.081.068,19,19,0,0,0-4.377-.045,8.545,8.545,0,0,1-3.676-.313,1.292,1.292,0,0,0-.677-.086,13.824,13.824,0,0,1-3.694-.047c-.815-.073-1.651.243-2.452-.127a.357.357,0,0,0-.27.021,4.977,4.977,0,0,1-2.969.226,3.724,3.724,0,0,0-.813.127,3.157,3.157,0,0,1-1.093.055,12.173,12.173,0,0,0-3.278-.07c-.78,0-1.56-.015-2.34-.024a8.047,8.047,0,0,0-2.321.139,4.165,4.165,0,0,1-1.087.095c-.871.006-1.748-.079-2.611,0a36.7,36.7,0,0,1-4.516.153c-.54-.018-1.084.145-1.628.175-1.235.069-2.472.054-3.706.212a8.336,8.336,0,0,1-2.883-.026,2.761,2.761,0,0,0-.825-.025c-2.878.255-5.764.444-8.629.8a62.721,62.721,0,0,1-6.449.506,10.145,10.145,0,0,1-2.6.058,1.551,1.551,0,0,0-.787.184,5.536,5.536,0,0,1-1.889.337,11.769,11.769,0,0,0-1.37.13c-2.958.395-5.937.6-8.9.976-1.958.247-3.922.416-5.882.636s-3.908.573-5.864.847c-.59.083-1.189.086-1.784.143a52.406,52.406,0,0,0-6.933,1.082c-1.967.458-3.964.784-5.949,1.168a3.25,3.25,0,0,1-.409.061,12.626,12.626,0,0,0-4.156.9c-.624.261-.954.164-1.218-.231a1.2,1.2,0,0,1,.083-1.63,2.312,2.312,0,0,1,1.267-.779,7.337,7.337,0,0,0,2.926-.674.711.711,0,0,1,.4-.018,8.285,8.285,0,0,0,3.73-.731c.145-.053.238-.248.358-.373a2.586,2.586,0,0,0,1.747-.061c.979-.223,1.96-.449,2.952-.612a8.3,8.3,0,0,0,1.9-.6,3.164,3.164,0,0,0-1.541.054,7.615,7.615,0,0,1-1.2.257A12.168,12.168,0,0,0,7186.892,3683.386Zm41.572-10.569.535.138.021-.1-.556-.037a1.522,1.522,0,0,0-.173.163.681.681,0,0,0-.07.166c.061-.031.144-.047.177-.1A1.091,1.091,0,0,0,7228.464,3672.817Zm15.587,2.676c.035.072.065.147.106.216.02.03.062.046.094.068a.386.386,0,0,1-.1-.077c-.042-.064-.072-.136-.108-.2a2.2,2.2,0,0,1-.351.1c-.342.044-.381.251-.31.53-.89-.667-.9-.667-1.764-.033a2.315,2.315,0,0,0,1.728-.008Zm4.727-.282-.125.274a1.646,1.646,0,0,0,.545.227q1.774.031,3.549,0a7.612,7.612,0,0,0,.943-.146c.327-.048.656-.088,1.052-.141a.784.784,0,0,0-.85-.481c-1.036.079-2.076.145-3.1.282A3.722,3.722,0,0,1,7248.778,3675.211Zm-30.039-1.439c-.771.042-1.257.063-1.743.094a1.934,1.934,0,0,0-1.437.5c1,.441,1.846-.027,2.7-.075C7218.37,3674.284,7218.473,3674.067,7218.739,3673.772Zm-8.593,1.154c.785.538,1.547.07,2.329.065.065,0,.193-.21.176-.3s-.191-.239-.271-.225C7211.631,3674.6,7210.888,3674.768,7210.146,3674.926Zm36.551.842a1.107,1.107,0,0,0-1.264,0Zm-40-.06c-.345-.025-.8-.284-.836.328Zm28.9,1.022c.146,0,.2.019.234,0,.167-.117.476-.093.437-.419a.153.153,0,0,0-.093-.092c-.274-.094-.417.073-.532.283A1.277,1.277,0,0,0,7235.6,3676.73Zm-40.168,1.073a1.977,1.977,0,0,0,.388.034c.027,0,.043-.133.064-.2a.691.691,0,0,0-.258-.033C7195.562,3677.615,7195.519,3677.7,7195.429,3677.8Zm68.076-4.61c.05.066.089.167.154.187s.133-.066.2-.1c-.048-.063-.087-.164-.147-.178S7263.576,3673.157,7263.5,3673.193Zm-42.135.391c-.06-.054-.114-.14-.182-.151-.042-.007-.1.1-.156.151.059.049.116.13.18.136C7221.26,3673.726,7221.317,3673.633,7221.37,3673.584Zm-21.207,3.134a2.956,2.956,0,0,0-.339.124c-.011.006.021.162.045.166a.344.344,0,0,0,.235-.036C7200.147,3676.94,7200.138,3676.838,7200.163,3676.718Zm-5.832,4.958-.162.177a.745.745,0,0,0,.091.074c.059-.054.111-.115.166-.175Zm28.542-8.055-.13.031.207.029Zm-11.922,5.444a.764.764,0,0,0,.019.11c.076,0,.151-.017.227-.027l-.035-.2Zm44.618-3.7.059-.076h-.114Zm-3.653.839.115.032.016-.159c-.04.006-.089,0-.117.023S7251.919,3676.166,7251.916,3676.2Zm15.69-3.238h-.113a1.217,1.217,0,0,0,.038.19c0,.01.072,0,.111-.006Zm-74.063,5.106h-.1l.094.083Zm69.284-6.35.068.047.012-.071Zm-12.328,2,.008-.076-.087.029Zm-31.1.082-.035.1.123-.072Zm18.938,2.657.079-.039-.078-.038Zm62.338-2.585-.083.05.154.013Z" transform="translate(-1.297 -13.627)" fill="#0e0e98"/>
    <path id="Path_27" data-name="Path 27" d="M7297.469,3692.663a4.63,4.63,0,0,1,2.958-.276c1.09.123,2.176.3,3.264.443a1.543,1.543,0,0,0,.546-.026,1.237,1.237,0,0,1,1.178.192c.356.321.969-.117,1.21.454l.415-.377c.173.106.374.208.55.342a.66.66,0,0,0,.768.107c.914-.551,1.864-.237,2.8-.154a5.489,5.489,0,0,0,.8.084,6.316,6.316,0,0,1,2.189.157,2.368,2.368,0,0,0,.679.009,18.877,18.877,0,0,1,4.325.721.528.528,0,0,1,.4.635c-.048.361-.121.719-.191,1.127a2.3,2.3,0,0,1-.635.191,23.013,23.013,0,0,1-3.969-.25c-.876-.15-1.74-.071-2.605-.135-.649-.047-1.38.234-1.912-.408a.281.281,0,0,0-.257-.027c-1.217.561-2.5.127-3.744.243a1.464,1.464,0,0,1-.776-.229,2.106,2.106,0,0,0-1.729-.172,2.663,2.663,0,0,1-1.587,0,6.384,6.384,0,0,0-2.028.113c-.593.047-1.185.109-1.777.137a1.456,1.456,0,0,1-1.328-.579,3.4,3.4,0,0,1-1.084.534,4.041,4.041,0,0,1-1.615-.2,3.046,3.046,0,0,0-1.323-.143c-1.507.128-3.02.234-4.531.24a28.548,28.548,0,0,1-2.874-.287,5.266,5.266,0,0,0-1.1-.042,4.559,4.559,0,0,1-2.571-.186,1.253,1.253,0,0,0-.674.018c-.452.078-.9.192-1.349.279a2.332,2.332,0,0,1-2.206-.379,6.551,6.551,0,0,1-3.427.43c-1.585-.057-3.175-.03-4.756-.17a5.543,5.543,0,0,1-2.444-.007,2.288,2.288,0,0,0-.679,0c-1.449.378-2.928-.021-4.381.19-1.043-.612-2.142-.1-3.212-.161a6.351,6.351,0,0,0-2.314.121,4.363,4.363,0,0,1-1.372.068,48.684,48.684,0,0,0-6.739.14,31.2,31.2,0,0,1-3.716.054c-2.795-.021-5.581.18-8.371.231-1.324.025-2.646.12-3.957.206-2.608.171-5.234-.026-7.826.4-1.943-.15-3.817.533-5.753.485-1.793.462-3.655.24-5.455.531a37.4,37.4,0,0,0-3.808.529,25.212,25.212,0,0,1-3.129.38c-2.274.309-4.549.619-6.815.972-1.724.269-3.426.717-5.157.883-2.25.215-4.411.865-6.64,1.162-1.275.17-2.547.351-3.817.552-2.9.459-5.774,1.088-8.626,1.808a1.511,1.511,0,0,1-.933.075,1.566,1.566,0,0,1-.992-1.516,1.154,1.154,0,0,1,.791-1.175,4.019,4.019,0,0,1,1.188-.334c2.23-.307,4.415-.83,6.612-1.3,1.929-.417,3.824-.983,5.756-1.34,2.3-.426,4.548-1.072,6.85-1.463.994-.169,1.993-.305,2.986-.477.451-.078.894-.205,1.34-.315a1.925,1.925,0,0,1,.525-.145c1.862.129,3.6-.682,5.437-.714,1.39-.522,2.886-.351,4.317-.671,1.379-.308,2.821-.322,4.229-.51.9-.121,1.795-.323,2.692-.49a4.016,4.016,0,0,1,2.03-.125,3.7,3.7,0,0,0,1.221-.089,13.188,13.188,0,0,0,3.25-.327,3.642,3.642,0,0,1,1.366-.08,7.719,7.719,0,0,0,2.714-.322,3.18,3.18,0,0,1,2.025-.156.539.539,0,0,0,.4-.01c.61-.36,1.255-.145,1.889-.145a18.04,18.04,0,0,0,2.455-.038c2.047-.283,4.1.039,6.147-.188.5-.056,1-.123,1.5-.214a3.02,3.02,0,0,1,1.5.042,3.082,3.082,0,0,0,1.873-.066,5.123,5.123,0,0,1,2.428-.2,2.631,2.631,0,0,0,1.093.019,13.141,13.141,0,0,1,3.681-.114c.578.006,1.123.285,1.746.055.483-.179,1.056.079,1.6-.178a2,2,0,0,1,1.082.059,12.518,12.518,0,0,0,2.61.1c.541-.011,1.085.069,1.629.113.133.011.292.1.392.054,1.194-.559,2.44.036,3.648-.174.268-.046.566.054.82-.019,1.506-.43,3.016.014,4.521-.05.453-.02.8.313,1.314.273a8.97,8.97,0,0,0,1.817-.182,2.944,2.944,0,0,1,1.232-.055,24.548,24.548,0,0,0,4.813.123,5.594,5.594,0,0,1,1.314.216,8.712,8.712,0,0,0,2.321,0,6.758,6.758,0,0,1,2.189.108,5.7,5.7,0,0,0,.958.056,3.749,3.749,0,0,1,1.091.113,3.08,3.08,0,0,0,2.277.015,2.392,2.392,0,0,1,.955-.089c1.367.1,2.731.234,4.148.359l-.067.471a.865.865,0,0,0,1.012-.039,1.777,1.777,0,0,1,2.387.111c-.1-.019-.206-.034-.307-.049.019.024.038.069.054.068C7297.313,3692.7,7297.392,3692.677,7297.469,3692.663Zm-8.581,1.9c-.425-.724-.425-.724-1.011-.5C7288.164,3694.323,7288.383,3694.707,7288.888,3694.56Zm-4.066-2.372v-.117h-.73v.117Zm14.08,2.421-.2.323c.068.032.157.105.2.084a.312.312,0,0,0,.153-.2C7299.063,3694.767,7298.973,3694.7,7298.9,3694.609Zm-22.485-.475c-.038-.009-.088-.037-.113-.023s-.045.07-.066.107l.173.037Zm19.518-1.489a.4.4,0,0,0-.122-.005c-.012,0-.009.064-.012.1a.418.418,0,0,0,.123,0C7295.934,3692.739,7295.931,3692.68,7295.934,3692.646Zm6.757,2.4a1.14,1.14,0,0,0,.157.118c.012.005.085-.06.082-.082a.958.958,0,0,0-.081-.189Zm-2.712-2.2.07-.1-.1-.021Z" transform="translate(-0.165 -23.82)" fill="#0e0e98"/>
    <path id="Path_28" data-name="Path 28" d="M7234.971,3774.01a5.913,5.913,0,0,0,.823-.022,4.287,4.287,0,0,0,.757-.309l-.656.827,1.19.167-.129.778a.769.769,0,0,1-.236.1,17.765,17.765,0,0,1-2.461.1,9.983,9.983,0,0,0-2.283.366c-.271.047-.544.092-.818.112-1.506.109-3.021.136-4.515.332-2.04.266-4.1.287-6.132.706-1.294.268-2.632.32-3.945.514-1.582.233-3.157.514-4.735.775a7.049,7.049,0,0,1-1.087.174,6.785,6.785,0,0,0-3.446.782.481.481,0,0,1-.254.1c-1.168-.167-2.383.316-3.524-.248.342-.207.7-.395,1.021-.627.114-.083.147-.275.284-.555-.58.073-1.024-.047-1.451.3l.187.921a1.234,1.234,0,0,1-.326.25,14.262,14.262,0,0,1-3.252.984c-.681.051-1.35.25-2.026.367a11.539,11.539,0,0,1-1.763.254,6.66,6.66,0,0,0-1.888.321,16.055,16.055,0,0,1-2.912.741,13.8,13.8,0,0,0-2.1.637,13.413,13.413,0,0,1-3.637.643,4.01,4.01,0,0,0-1.711.408,17.14,17.14,0,0,1-3.717.955,18.373,18.373,0,0,0-2.523.64,2.125,2.125,0,0,1-2.6-.423c-.039-.76-.7-1.551-.375-2.517a1.708,1.708,0,0,1,1.269-.384,7.7,7.7,0,0,0,2.967-.433,3.3,3.3,0,0,1,.8-.127,8.014,8.014,0,0,0,.943-.083,6.615,6.615,0,0,1,1.764-.2,4.539,4.539,0,0,0,1.745-.311,7.614,7.614,0,0,1,3.175-.662,1.025,1.025,0,0,0,.394-.114,4.449,4.449,0,0,1,2.511-.551c1.011-.667,2.231-.343,3.329-.7a10.51,10.51,0,0,1,2.586-.185c.048-.011.093-.011.133-.022a.332.332,0,0,0,.078-.048l-.239.089a4.913,4.913,0,0,1,.677-.449c.631-.286.978-.124,1.259.561a4.378,4.378,0,0,1,.138.478c1.23.316,2.124-.483,3.125-.707.131-.283-.337-.544.037-.741a4.363,4.363,0,0,1,.875-.313c.169-.047.363-.008.535-.051.468-.118.932-.259,1.4-.391l-.027-.013a.633.633,0,0,0,.829.263c.325-.16.633-.353.952-.525.118-.063.273-.189.359-.155.768.308,1.413-.211,2.12-.283a2.294,2.294,0,0,1,1.069-.016c.369.163.686-.023,1.16-.028a4.706,4.706,0,0,1-.269.532c-.122.173-.294.315-.4.5-.072.127.211.4.34.33.386-.209.749-.464,1.142-.657s.833-.344,1.25-.513l-.03.023,2.471.357c.441-.231.165-1.172,1-1.238l-.079.615a2.7,2.7,0,0,1,1.8.409c-.128-.031-.269-.107-.381-.078a1.2,1.2,0,0,0-.4.257c-.01.009.071.194.114.195a.942.942,0,0,0,.474-.064c.09-.05.11-.227.161-.348a2.545,2.545,0,0,0,.51-.386.356.356,0,0,0-.09-.564l.009.01.656-.19c.506.457.794.457,1.073-.089l-1.106.127.05-.612a2.68,2.68,0,0,1,2.587.021l-.261.713a.407.407,0,0,0,.613-.141,2.563,2.563,0,0,1,.974-.947,1.179,1.179,0,0,1,.757-.267,5.7,5.7,0,0,0,2.172-.181,9.006,9.006,0,0,1,.906,0l.476,1.06c.666-.145,1.234-.345,1.9-.545-.59-.522-1.049.125-1.519-.074.452-.532.449-.552.894-.629.678-.117,1.362-.2,2.043-.3.494-.071.986-.169,1.483-.2s1-.008,1.5-.008c-.026.542.208.745.648.74l-.029-.043a1.065,1.065,0,0,0,.063.113c.16.229.373.389.653.271.332-.139.17-.431.152-.671Zm-10.214,1.63-.093-.485c-.459-.024-.853-.043-1.248-.067-.178-.01-.359-.036-.4.226l1.2.751.569-.458a.641.641,0,0,0,.059.239c.036.048.132.05.2.072-.018-.064-.017-.151-.06-.187A.758.758,0,0,0,7224.757,3775.641Zm5.716-.829.126.259c.748-.085,1.5-.162,2.242-.269.069-.01.133-.2.156-.318.008-.04-.119-.156-.179-.153-.67.032-1.342.064-2.008.14C7230.686,3774.485,7230.584,3774.693,7230.473,3774.812Zm-21.975,2.459a1,1,0,0,0-.322.049,1.759,1.759,0,0,0-.276.252c.087.088.167.238.265.252a2.343,2.343,0,0,0,.67-.022c.052-.007.119-.141.12-.218a.279.279,0,0,0-.118-.217A1.481,1.481,0,0,0,7208.5,3777.271Zm-1.916.291a.826.826,0,0,0-.3.024,1.491,1.491,0,0,0-.265.234c.088.082.171.224.266.233a2.817,2.817,0,0,0,.63-.054c.025,0,.062-.07.059-.1-.007-.079-.011-.2-.06-.227A1.385,1.385,0,0,0,7206.582,3777.562Zm-11.511,2.957.931-.863C7194.959,3779.712,7194.951,3779.72,7195.071,3780.519Zm34.345-4.688c.3-.116.664.307.922-.14a.119.119,0,0,0-.023-.113C7229.94,3775.338,7229.687,3775.609,7229.416,3775.83Zm-3.753-.606c.036.013.092.046.106.033a.548.548,0,0,0,.085-.134.377.377,0,0,0-.115.02C7225.708,3775.16,7225.688,3775.2,7225.663,3775.224Z" transform="translate(-0.703 -58.871)" fill="#0e0e98"/>
    <path id="Path_29" data-name="Path 29" d="M7264.511,3761.5c.463-.349.892-.678,1.331-.993.065-.047.178-.03.27-.037a.432.432,0,0,1,.137.012.9.9,0,0,1,.126.054l.024.511.536.114c.028.05.069.09.068.128a3.128,3.128,0,0,1-.9.88c-.406.043-.812.074-1.263.114Zm1,.21c0-.033.007-.09,0-.093a.253.253,0,0,0-.129-.008.413.413,0,0,0-.108.064Z" transform="translate(-38.89 -53.312)" fill="#0e0e98"/>
    <path id="Path_30" data-name="Path 30" d="M7287.182,3759.642a3.02,3.02,0,0,1,.382-.09c.979-.056.974-.054,1.205,1.025.025.12.153.218.238.332-.148.308-.467.222-.7.255-.459.066-.631-.117-.677-.614-.017-.18.055-.383-.008-.539C7287.567,3759.879,7287.381,3759.8,7287.182,3759.642Z" transform="translate(-48.522 -52.915)" fill="#0e0e98"/>
    <path id="Path_31" data-name="Path 31" d="M7250.94,3762.342c.214-.068.441-.319.876-.113.372.177.38.462.544.71a3.029,3.029,0,0,0,.442.446c-.669.407-.7.393-1.047-.08C7251.5,3762.959,7251.2,3762.645,7250.94,3762.342Z" transform="translate(-33.124 -54.026)" fill="#0e0e98"/>
    <path id="Path_32" data-name="Path 32" d="M7218.328,3781.86l-1.917.449c-.054-.49.314-.68.459-.969C7218.177,3781.472,7218.177,3781.472,7218.328,3781.86Z" transform="translate(-18.45 -62.18)" fill="#0e0e98"/>
    <path id="Path_33" data-name="Path 33" d="M7279.04,3760.2l1.366.561a.392.392,0,0,1-.534.4c-.311-.068-.6-.215-.915-.282a5.739,5.739,0,0,0-.823-.058l.915-.635Z" transform="translate(-44.678 -53.192)" fill="#0e0e98"/>
    <path id="Path_34" data-name="Path 34" d="M7378.554,3766.429a10.407,10.407,0,0,1-2.453-.148,1.5,1.5,0,0,1,.13-.28C7377.007,3766.164,7377.86,3765.875,7378.554,3766.429Z" transform="translate(-86.303 -55.663)" fill="#0e0e98"/>
    <path id="Path_35" data-name="Path 35" d="M7256.558,3763.055c.389.178.422.424.3.682a.373.373,0,0,1-.33.127c-.087-.019-.218-.188-.2-.264A2.742,2.742,0,0,1,7256.558,3763.055Z" transform="translate(-35.41 -54.411)" fill="#0e0e98"/>
    <path id="Path_36" data-name="Path 36" d="M7239.708,3778.607a2.232,2.232,0,0,1-1.616-.1c.291-.306.65-.258.961-.342.2.156.41.314.621.469Z" transform="translate(-27.664 -60.831)" fill="#0e0e98"/>
    <path id="Path_37" data-name="Path 37" d="M7363.436,3764.8l-1.408-.331A2.025,2.025,0,0,1,7363.436,3764.8Z" transform="translate(-80.324 -54.996)" fill="#0e0e98"/>
    <path id="Path_38" data-name="Path 38" d="M7234.6,3766.644a1.311,1.311,0,0,1,1.279-.417C7235.476,3766.587,7235.476,3766.587,7234.6,3766.644Z" transform="translate(-26.18 -55.746)" fill="#0e0e98"/>
    <path id="Path_39" data-name="Path 39" d="M7244.8,3763.812c-.321-.029-.812.313-.895-.253-.062-.425.318-.587.8-.583l-.417.531c.048.295.265.32.5.307Z" transform="translate(-30.133 -54.377)" fill="#0e0e98"/>
    <path id="Path_40" data-name="Path 40" d="M7299.929,3759.65c-.027.513-.421.5-.868.559l-.315-.518c.442-.146.83.354,1.188-.042Z" transform="translate(-53.436 -52.964)" fill="#0e0e98"/>
    <path id="Path_41" data-name="Path 41" d="M7242.321,3777.544c.119.129.257.214.274.32.013.083-.1.233-.195.278a.824.824,0,0,1-.4.035.309.309,0,0,1-.227-.115.26.26,0,0,1,.077-.236A4.136,4.136,0,0,1,7242.321,3777.544Z" transform="translate(-29.224 -60.568)" fill="#0e0e98"/>
    <path id="Path_42" data-name="Path 42" d="M7225.885,3768.864l.046.008a2.488,2.488,0,0,1-.066-.538c.021-.315.039-.314.623-.532C7226.379,3768.323,7226.379,3768.323,7225.885,3768.864Z" transform="translate(-22.468 -56.428)" fill="#0e0e98"/>
    <path id="Path_43" data-name="Path 43" d="M7351.72,3762.9l.625.536C7351.584,3763.593,7351.584,3763.593,7351.72,3762.9Z" transform="translate(-75.915 -54.346)" fill="#0e0e98"/>
    <path id="Path_44" data-name="Path 44" d="M7224.581,3769.036l.048-.006-.725-.569c.227-.437.488-.254.617-.056C7224.623,3768.562,7224.567,3768.821,7224.581,3769.036Z" transform="translate(-21.636 -56.594)" fill="#0e0e98"/>
    <path id="Path_45" data-name="Path 45" d="M7313.462,3761.993h1.133C7314.147,3762.208,7314.147,3762.208,7313.462,3761.993Z" transform="translate(-59.689 -53.96)" fill="#0e0e98"/>
    <path id="Path_46" data-name="Path 46" d="M7312.081,3759.686c.037.463.037.463-.454.7A.669.669,0,0,1,7312.081,3759.686Z" transform="translate(-58.909 -52.98)" fill="#0e0e98"/>
    <path id="Path_47" data-name="Path 47" d="M7367.953,3765.146l.757.094,0,.093h-.8Z" transform="translate(-82.823 -55.3)" fill="#0e0e98"/>
    <path id="Path_48" data-name="Path 48" d="M7302.969,3761.9l-.874.126C7302.321,3761.865,7302.531,3761.643,7302.969,3761.9Z" transform="translate(-54.859 -53.87)" fill="#0e0e98"/>
    <path id="Path_49" data-name="Path 49" d="M7406.133,3770.061a2.545,2.545,0,0,1-.575.267.9.9,0,0,1-.336-.114c.084-.084.157-.214.257-.241A2.465,2.465,0,0,1,7406.133,3770.061Z" transform="translate(-98.677 -57.347)" fill="#0e0e98"/>
    <path id="Path_50" data-name="Path 50" d="M7300.809,3759.65a3.145,3.145,0,0,1,.66.034.486.486,0,0,1,.279.371l-.943-.4Z" transform="translate(-54.31 -52.964)" fill="#0e0e98"/>
    <path id="Path_51" data-name="Path 51" d="M7357.748,3763.746l.965.373c-.567.143-.851.05-.93-.41Z" transform="translate(-78.505 -54.689)" fill="#0e0e98"/>
    <path id="Path_52" data-name="Path 52" d="M7383.056,3766.9a4.018,4.018,0,0,1-.491.079c-.074,0-.152-.065-.229-.1a.943.943,0,0,1,.281-.186,1.414,1.414,0,0,1,.39.022Z" transform="translate(-88.953 -55.951)" fill="#0e0e98"/>
    <path id="Path_53" data-name="Path 53" d="M7244.819,3764.431c-.248.683-.248.683-.864.569l.868-.569Z" transform="translate(-30.156 -54.996)" fill="#0e0e98"/>
    <path id="Path_54" data-name="Path 54" d="M7278.1,3774.423a1.42,1.42,0,0,1,.078-.249c.229-.44.283-.442.741-.042l.02-.039-.867.288Z" transform="translate(-44.652 -58.993)" fill="#0e0e98"/>
    <path id="Path_55" data-name="Path 55" d="M7348.308,3763.519l-.632-.03-.015-.1.606-.092Z" transform="translate(-74.22 -54.513)" fill="#0e0e98"/>
    <path id="Path_56" data-name="Path 56" d="M7274.756,3762.084c.039.094.093.162.084.22a.3.3,0,0,1-.123.193c-.028.018-.117-.063-.178-.1Z" transform="translate(-43.151 -53.999)" fill="#0e0e98"/>
    <path id="Path_57" data-name="Path 57" d="M7325.049,3761.914l.182.283c-.076.038-.179.127-.222.1a1.12,1.12,0,0,1-.243-.244Z" transform="translate(-64.491 -53.927)" fill="#0e0e98"/>
    <path id="Path_58" data-name="Path 58" d="M7339.544,3762.884c-.073.035-.141.093-.207.09s-.138-.064-.207-.1c.065-.042.131-.121.195-.119S7339.465,3762.835,7339.544,3762.884Z" transform="translate(-70.595 -54.285)" fill="#0e0e98"/>
    <path id="Path_59" data-name="Path 59" d="M7216.773,3766.757c-.138-.024-.277-.045-.411-.083a1.291,1.291,0,0,1,.025-.2l.424.124Z" transform="translate(-18.431 -55.863)" fill="#0e0e98"/>
    <path id="Path_60" data-name="Path 60" d="M7315.352,3760.11l.076.2a1.381,1.381,0,0,1-.221.022c-.016,0-.049-.1-.038-.107A1.2,1.2,0,0,1,7315.352,3760.11Z" transform="translate(-60.413 -53.16)" fill="#0e0e98"/>
    <path id="Path_61" data-name="Path 61" d="M7272.011,3760.524l.174-.13.107.159c-.034.02-.073.061-.1.055A.919.919,0,0,1,7272.011,3760.524Z" transform="translate(-42.077 -53.281)" fill="#0e0e98"/>
    <path id="Path_62" data-name="Path 62" d="M7423.19,3731.711c.068.083.139.169.2.26a.389.389,0,0,1-.084.073c-.093-.073-.178-.153-.265-.231Z" transform="translate(-106.25 -41.093)" fill="#0e0e98"/>
    <path id="Path_63" data-name="Path 63" d="M7246.368,3765.069c.031.015.08.024.088.047s-.024.061-.038.092c-.031-.015-.08-.023-.089-.046S7246.354,3765.1,7246.368,3765.069Z" transform="translate(-31.164 -55.267)" fill="#0e0e98"/>
    <path id="Path_64" data-name="Path 64" d="M7231.195,3766.953c.059.044.147.078.168.136.013.038-.07.153-.115.156s-.121-.07-.182-.11C7231.108,3767.074,7231.151,3767.013,7231.195,3766.953Z" transform="translate(-24.679 -56.068)" fill="#0e0e98"/>
    <path id="Path_65" data-name="Path 65" d="M7230.839,3765.162l.064-.088a1.61,1.61,0,0,1,.146.13c0,.006-.04.056-.062.085Z" transform="translate(-24.583 -55.269)" fill="#0e0e98"/>
    <path id="Path_66" data-name="Path 66" d="M7322.394,3775.494h-.226l.02-.077Z" transform="translate(-63.388 -59.664)" fill="#0e0e98"/>
    <path id="Path_67" data-name="Path 67" d="M7312.938,3775.042l-.742.073,0-.133.723.057A.05.05,0,0,1,7312.938,3775.042Z" transform="translate(-59.15 -59.479)" fill="#0e0e98"/>
    <path id="Path_68" data-name="Path 68" d="M7390.223,3728.932c.055-.05.107-.134.165-.139a.585.585,0,0,1,.232.081,1.274,1.274,0,0,1-.225.213C7390.375,3729.1,7390.282,3728.987,7390.223,3728.932Z" transform="translate(-92.303 -39.853)" fill="#0e0e98"/>
    <path id="Path_69" data-name="Path 69" d="M7352.175,3777.36l.737-.129.012.129h-.749Z" transform="translate(-76.137 -60.435)" fill="#0e0e98"/>
    <path id="Path_70" data-name="Path 70" d="M7342.581,3776.386l.751-.133.013.132h-.749A.035.035,0,0,1,7342.581,3776.386Z" transform="translate(-72.061 -60.019)" fill="#0e0e98"/>
    <path id="Path_71" data-name="Path 71" d="M7374.405,3765.761l.215.088c-.056.046-.121.136-.165.128-.062-.013-.11-.1-.163-.155Z" transform="translate(-85.535 -55.561)" fill="#0e0e98"/>
    <path id="Path_72" data-name="Path 72" d="M7407.759,3730.373c-.08.006-.16.015-.239.014-.009,0-.017-.056-.024-.086.08-.008.16-.019.239-.021C7407.742,3730.28,7407.75,3730.34,7407.759,3730.373Z" transform="translate(-99.643 -40.486)" fill="#0e0e98"/>
    <path id="Path_73" data-name="Path 73" d="M7296.51,3760.045c-.034-.015-.083-.024-.1-.05a.3.3,0,0,1,0-.121c.034.014.088.02.1.046S7296.512,3760,7296.51,3760.045Z" transform="translate(-52.442 -53.06)" fill="#0e0e98"/>
    <path id="Path_74" data-name="Path 74" d="M7259.287,3761.346l.074.073-.086.019Z" transform="translate(-36.665 -53.685)" fill="#0e0e98"/>
    <path id="Path_75" data-name="Path 75" d="M7400.785,3728.193l-.069-.005.035.238C7400.763,3728.349,7400.774,3728.271,7400.785,3728.193Z" transform="translate(-96.762 -39.597)" fill="#0e0e98"/>
    <path id="Path_76" data-name="Path 76" d="M7226.057,3779.877l.473-.057,0,.1c-.163-.016-.325-.031-.493-.05Z" transform="translate(-22.541 -61.535)" fill="#0e0e98"/>
    <path id="Path_77" data-name="Path 77" d="M7372.939,3764.566l.093.058-.106.126c-.015-.034-.044-.068-.043-.1S7372.92,3764.594,7372.939,3764.566Z" transform="translate(-84.936 -55.053)" fill="#0e0e98"/>
    <path id="Path_78" data-name="Path 78" d="M7236.422,3764.23v.088l-.074-.037Z" transform="translate(-26.924 -54.911)" fill="#0e0e98"/>
    <path id="Path_79" data-name="Path 79" d="M7294.9,3759.707l-.083-.052.092-.037Z" transform="translate(-51.767 -52.951)" fill="#0e0e98"/>
    <path id="Path_80" data-name="Path 80" d="M7298.434,3719.375l-.233.024.225-.03Z" transform="translate(-53.204 -35.849)" fill="#0e0e98"/>
    <path id="Path_81" data-name="Path 81" d="M7248.068,3762.737l-.036-.11.1.018Z" transform="translate(-31.888 -54.23)" fill="#0e0e98"/>
    <path id="Path_82" data-name="Path 82" d="M7250.563,3777.389l.025-.16c0,.01-.009.088-.017.168Z" transform="translate(-32.963 -60.434)" fill="#0e0e98"/>
    <path id="Path_83" data-name="Path 83" d="M7218.584,3766.749l.1.042-.117.114-.07-.087Z" transform="translate(-19.338 -46.779)" fill="#0e0e98"/>
    <path id="Path_84" data-name="Path 84" d="M7215.664,3769l.294.6.035-.04c-.271-.1-.269-.346-.287-.576Z" transform="translate(-18.135 -56.931)" fill="#0e0e98"/>
    <path id="Path_85" data-name="Path 85" d="M7283.652,3759.946l-.047.068-.027-.078Z" transform="translate(-46.992 -53.086)" fill="#0e0e98"/>
    <path id="Path_86" data-name="Path 86" d="M7279.719,3760.186l.154.033-.161-.023Z" transform="translate(-45.349 -53.192)" fill="#0e0e98"/>
    <path id="Path_87" data-name="Path 87" d="M7276.352,3762.7l.056-.085.034.1Z" transform="translate(-43.921 -54.223)" fill="#0e0e98"/>
    <path id="Path_88" data-name="Path 88" d="M7357.93,3750.561l-.239.041.227-.043Z" transform="translate(-78.481 -49.101)" fill="#0e0e98"/>
  </g>
</svg>
